<svg width="21" height="20" viewBox="0 0 21 20" fill="none" xmlns="http://www.w3.org/2000/svg">
<path fill-rule="evenodd" clip-rule="evenodd" d="M20.5 10C20.5 15.5228 16.0228 20 10.5 20C4.97715 20 0.5 15.5228 0.5 10C0.5 4.47715 4.97715 0 10.5 0C16.0228 0 20.5 4.47715 20.5 10ZM10.5 15.75C10.9142 15.75 11.25 15.4142 11.25 15V9C11.25 8.58579 10.9142 8.25 10.5 8.25C10.0858 8.25 9.75 8.58579 9.75 9V15C9.75 15.4142 10.0858 15.75 10.5 15.75ZM10.5 5C11.0523 5 11.5 5.44772 11.5 6C11.5 6.55228 11.0523 7 10.5 7C9.94771 7 9.5 6.55228 9.5 6C9.5 5.44772 9.94771 5 10.5 5Z" fill="#2268FF"/>
</svg>
