<svg width="12" height="15" viewBox="0 0 12 15" fill="none" xmlns="http://www.w3.org/2000/svg">
<path fill-rule="evenodd" clip-rule="evenodd" d="M6 14.1663C9.22412 14.1663 11.8378 11.5772 11.8378 8.38324C11.8378 5.18932 9.22412 2.60013 6 2.60013C2.77589 2.60013 0.162226 5.18932 0.162226 8.38324C0.162226 11.5772 2.77589 14.1663 6 14.1663ZM6 5.33104C6.26868 5.33104 6.48648 5.54681 6.48648 5.81297V8.18362L7.9656 9.64888C8.15558 9.83709 8.15558 10.1422 7.9656 10.3304C7.77562 10.5186 7.46759 10.5186 7.27761 10.3304L5.65601 8.72401C5.56477 8.63363 5.51352 8.51105 5.51352 8.38324V5.81297C5.51352 5.54681 5.73132 5.33104 6 5.33104Z" fill="#2268FF"/>
<path fill-rule="evenodd" clip-rule="evenodd" d="M3.49366 1.05958C3.63606 1.28528 3.5668 1.58261 3.33896 1.72367L0.74438 3.33009C0.516542 3.47115 0.216408 3.40254 0.0740104 3.17683C-0.0683871 2.95113 0.00087558 2.65381 0.228713 2.51274L2.82329 0.906325C3.05113 0.765261 3.35127 0.833875 3.49366 1.05958Z" fill="#2268FF"/>
<path fill-rule="evenodd" clip-rule="evenodd" d="M8.50635 1.05958C8.64875 0.833875 8.94888 0.765261 9.17672 0.906326L11.7713 2.51274C11.9991 2.65381 12.0684 2.95113 11.926 3.17684C11.7836 3.40254 11.4835 3.47115 11.2556 3.33009L8.66105 1.72367C8.43322 1.58261 8.36395 1.28528 8.50635 1.05958Z" fill="#2268FF"/>
</svg>
