<svg width="96" height="96" viewBox="0 0 96 96" fill="none" xmlns="http://www.w3.org/2000/svg">
<path fill-rule="evenodd" clip-rule="evenodd" d="M31.2929 0.000366211H68.6567V39.8134H61.706V6.9511H38.2437V22.4345H31.2929V0.000366211ZM0.879883 27.6486H24.4989V34.5993H7.83061V60.8264H24.4989V67.7772H0.879883V27.6486ZM31.2929 27.6486H52.4627V60.8264H61.706V45.0275H82.5602V51.9782H68.6567V67.7772H45.512V34.5993H38.2437V51.9782H13.8346V45.0275H31.2929V27.6486ZM88.1692 34.5993H74.6607V27.6486H95.12V67.7772H74.6607V60.8264H88.1692V34.5993ZM31.2929 57.5872H38.2437V88.8696H61.706V73.7812H68.6567V95.8204H31.2929V57.5872Z" fill="url(#paint0_linear_54_7431)"/>
<defs>
<linearGradient id="paint0_linear_54_7431" x1="95.12" y1="59.7329" x2="15.1518" y2="59.7314" gradientUnits="userSpaceOnUse">
<stop stop-color="#2268FF"/>
<stop offset="1" stop-color="#ACE3FD"/>
</linearGradient>
</defs>
</svg>
