<svg width="11" height="7" viewBox="0 0 11 7" fill="none" xmlns="http://www.w3.org/2000/svg">
<rect width="11" height="7" fill="#F5F5F5"/>
<g clip-path="url(#clip0_0_1)">
<rect width="375" height="1284" transform="translate(-64 -175)" fill="#FBFBFD"/>
<g clip-path="url(#clip1_0_1)">
<rect x="-47.5" y="-21.5" width="342" height="49" rx="24.5" fill="white" stroke="#F5F1FE"/>
<path d="M10.3615 0.792861C10.5453 0.965054 10.6557 1.19415 10.672 1.43718C10.6883 1.68021 10.6094 1.92046 10.4501 2.11286L10.3615 2.20686L6.09121 6.20686C5.90739 6.37904 5.66281 6.48247 5.40336 6.49775C5.14391 6.51303 4.88743 6.43911 4.68203 6.28986L4.58167 6.20686L0.311404 2.20686C0.119938 2.0269 0.00877641 1.78543 0.000497855 1.53148C-0.0077807 1.27753 0.0874441 1.03015 0.266831 0.839583C0.446219 0.649017 0.696317 0.529556 0.966329 0.505462C1.23634 0.481369 1.50602 0.554449 1.72059 0.709861L1.82094 0.792861L5.33644 4.08486L8.85194 0.792861C9.03577 0.620685 9.28035 0.517253 9.5398 0.501972C9.79924 0.486691 10.0557 0.56061 10.2611 0.709861L10.3615 0.792861Z" fill="#363636"/>
</g>
</g>
<defs>
<clipPath id="clip0_0_1">
<rect width="375" height="1284" fill="white" transform="translate(-64 -175)"/>
</clipPath>
<clipPath id="clip1_0_1">
<rect width="343" height="50" fill="white" transform="translate(-48 -22)"/>
</clipPath>
</defs>
</svg>
