<svg width="14" height="15" viewBox="0 0 14 15" fill="none" xmlns="http://www.w3.org/2000/svg">
<path d="M4.16634 1.16699C4.16634 0.89085 3.94248 0.666992 3.66634 0.666992C3.3902 0.666992 3.16634 0.89085 3.16634 1.16699V2.21983C2.20679 2.29667 1.57686 2.48524 1.11406 2.94804C0.651257 3.41084 0.462683 4.04077 0.385846 5.00033H13.6135C13.5367 4.04077 13.3481 3.41084 12.8853 2.94804C12.4225 2.48524 11.7926 2.29667 10.833 2.21983V1.16699C10.833 0.89085 10.6091 0.666992 10.333 0.666992C10.0569 0.666992 9.83301 0.89085 9.83301 1.16699V2.17559C9.3895 2.16699 8.89236 2.16699 8.33301 2.16699H5.66634C5.10698 2.16699 4.60985 2.16699 4.16634 2.17559V1.16699Z" fill="#2268FF"/>
<path fill-rule="evenodd" clip-rule="evenodd" d="M0.333008 7.50033C0.333008 6.94097 0.333008 6.44384 0.341609 6.00033H13.6577C13.6663 6.44384 13.6663 6.94097 13.6663 7.50033V8.83366C13.6663 11.3478 13.6663 12.6049 12.8853 13.3859C12.1042 14.167 10.8472 14.167 8.33301 14.167H5.66634C3.15218 14.167 1.89511 14.167 1.11406 13.3859C0.333008 12.6049 0.333008 11.3478 0.333008 8.83366V7.50033ZM10.333 8.83366C10.7012 8.83366 10.9997 8.53518 10.9997 8.16699C10.9997 7.7988 10.7012 7.50033 10.333 7.50033C9.96482 7.50033 9.66634 7.7988 9.66634 8.16699C9.66634 8.53518 9.96482 8.83366 10.333 8.83366ZM10.333 11.5003C10.7012 11.5003 10.9997 11.2018 10.9997 10.8337C10.9997 10.4655 10.7012 10.167 10.333 10.167C9.96482 10.167 9.66634 10.4655 9.66634 10.8337C9.66634 11.2018 9.96482 11.5003 10.333 11.5003ZM7.66634 8.16699C7.66634 8.53518 7.36786 8.83366 6.99967 8.83366C6.63148 8.83366 6.33301 8.53518 6.33301 8.16699C6.33301 7.7988 6.63148 7.50033 6.99967 7.50033C7.36786 7.50033 7.66634 7.7988 7.66634 8.16699ZM7.66634 10.8337C7.66634 11.2018 7.36786 11.5003 6.99967 11.5003C6.63148 11.5003 6.33301 11.2018 6.33301 10.8337C6.33301 10.4655 6.63148 10.167 6.99967 10.167C7.36786 10.167 7.66634 10.4655 7.66634 10.8337ZM3.66634 8.83366C4.03453 8.83366 4.33301 8.53518 4.33301 8.16699C4.33301 7.7988 4.03453 7.50033 3.66634 7.50033C3.29815 7.50033 2.99967 7.7988 2.99967 8.16699C2.99967 8.53518 3.29815 8.83366 3.66634 8.83366ZM3.66634 11.5003C4.03453 11.5003 4.33301 11.2018 4.33301 10.8337C4.33301 10.4655 4.03453 10.167 3.66634 10.167C3.29815 10.167 2.99967 10.4655 2.99967 10.8337C2.99967 11.2018 3.29815 11.5003 3.66634 11.5003Z" fill="#2268FF"/>
</svg>
