<svg width="80" height="80" viewBox="0 0 80 80" fill="none" xmlns="http://www.w3.org/2000/svg">
<g id="Group 1000002731">
<rect id="Profile" x="1" y="1" width="78" height="78" rx="19" fill="white" stroke="#F5F1FE" stroke-width="2" stroke-linejoin="round" stroke-dasharray="5 5"/>
<g id="Group 3353">
<circle id="Ellipse 3" cx="40" cy="40" r="12.6316" fill="#2268FF" stroke="white" stroke-width="1.26316"/>
<g id="Camera 1">
<g id="Vector">
<path d="M39.8422 38.6716C38.7086 38.6716 37.7896 39.5906 37.7896 40.7242C37.7896 41.8578 38.7086 42.7768 39.8422 42.7768C40.9758 42.7768 41.8948 41.8578 41.8948 40.7242C41.8948 39.5906 40.9758 38.6716 39.8422 38.6716Z" fill="white"/>
<path fill-rule="evenodd" clip-rule="evenodd" d="M42.1476 33.9291C40.8328 32.7604 38.8516 32.7604 37.5369 33.9291L37.4006 34.0502C37.0266 34.3827 36.5436 34.5663 36.0432 34.5663C34.3916 34.5663 33.0527 35.9052 33.0527 37.5568V40.7528C33.0527 41.9127 33.0527 42.8219 33.1309 43.5433C33.2106 44.2794 33.3763 44.8758 33.7463 45.3851C33.9703 45.6934 34.2414 45.9645 34.5497 46.1885C35.059 46.5585 35.6554 46.7242 36.3916 46.8039C37.1129 46.8821 38.0221 46.8821 39.182 46.8821H40.5024C41.6623 46.8821 42.5715 46.8821 43.2929 46.8039C44.029 46.7242 44.6254 46.5585 45.1347 46.1885C45.443 45.9645 45.7141 45.6934 45.9381 45.3851C46.3081 44.8758 46.4738 44.2794 46.5535 43.5433C46.6317 42.8219 46.6317 41.9127 46.6317 40.7528V37.5568C46.6317 35.9052 45.2928 34.5663 43.6412 34.5663C43.1408 34.5663 42.6578 34.3827 42.2838 34.0502L42.1476 33.9291ZM36.8422 40.7242C36.8422 39.0673 38.1854 37.7242 39.8422 37.7242C41.4991 37.7242 42.8422 39.0673 42.8422 40.7242C42.8422 42.3811 41.4991 43.7242 39.8422 43.7242C38.1854 43.7242 36.8422 42.3811 36.8422 40.7242ZM43.6317 38.1979C43.2829 38.1979 43.0001 37.9151 43.0001 37.5663C43.0001 37.2175 43.2829 36.9348 43.6317 36.9348C43.9805 36.9348 44.2633 37.2175 44.2633 37.5663C44.2633 37.9151 43.9805 38.1979 43.6317 38.1979Z" fill="white"/>
</g>
</g>
</g>
</g>
</svg>
