<svg width="21" height="20" viewBox="0 0 21 20" fill="none" xmlns="http://www.w3.org/2000/svg">
<path d="M20.47 16.33C20.47 16.69 20.39 17.06 20.22 17.42C20.05 17.78 19.83 18.12 19.54 18.44C19.05 18.98 18.51 19.37 17.9 19.62C17.3 19.87 16.65 20 15.95 20C14.93 20 13.84 19.76 12.69 19.27C11.54 18.78 10.39 18.12 9.25 17.29C8.1 16.45 7.01 15.52 5.97 14.49C4.94 13.45 4.01 12.36 3.18 11.22C2.36 10.08 1.7 8.94 1.22 7.81C0.74 6.67 0.5 5.58 0.5 4.54C0.5 3.86 0.62 3.21 0.86 2.61C1.1 2 1.48 1.44 2.01 0.94C2.65 0.31 3.35 0 4.09 0C4.37 0 4.65 0.0600001 4.9 0.18C5.16 0.3 5.39 0.48 5.57 0.74L7.89 4.01C8.07 4.26 8.2 4.49 8.29 4.71C8.38 4.92 8.43 5.13 8.43 5.32C8.43 5.56 8.36 5.8 8.22 6.03C8.09 6.26 7.9 6.5 7.66 6.74L6.9 7.53C6.79 7.64 6.74 7.77 6.74 7.93C6.74 8.01 6.75 8.08 6.77 8.16C6.8 8.24 6.83 8.3 6.85 8.36C7.03 8.69 7.34 9.12 7.78 9.64C8.23 10.16 8.71 10.69 9.23 11.22C9.77 11.75 10.29 12.24 10.82 12.69C11.34 13.13 11.77 13.43 12.11 13.61C12.16 13.63 12.22 13.66 12.29 13.69C12.37 13.72 12.45 13.73 12.54 13.73C12.71 13.73 12.84 13.67 12.95 13.56L13.71 12.81C13.96 12.56 14.2 12.37 14.43 12.25C14.66 12.11 14.89 12.04 15.14 12.04C15.33 12.04 15.53 12.08 15.75 12.17C15.97 12.26 16.2 12.39 16.45 12.56L19.76 14.91C20.02 15.09 20.2 15.3 20.31 15.55C20.41 15.8 20.47 16.05 20.47 16.33Z" fill="#2B6EFE"/>
</svg>
