<svg width="18" height="14" viewBox="0 0 18 14" fill="none" xmlns="http://www.w3.org/2000/svg">
<g clip-path="url(#clip0_54_2256)">
<path d="M9.00003 7.63623C8.37423 7.63623 7.76249 7.82284 7.24216 8.17247C6.72182 8.5221 6.31628 9.01904 6.07679 9.60046C5.83731 10.1819 5.77465 10.8216 5.89674 11.4389C6.01882 12.0561 6.32018 12.6231 6.76268 13.0681C7.20519 13.5131 7.76898 13.8161 8.38275 13.9389C8.99653 14.0616 9.63272 13.9986 10.2109 13.7578C10.789 13.517 11.2832 13.1091 11.6309 12.5859C11.9786 12.0626 12.1641 11.4474 12.1641 10.8181C12.1632 9.97452 11.8296 9.16572 11.2364 8.56921C10.6432 7.97269 9.83892 7.63716 9.00003 7.63623ZM9.00003 12.5856C8.65241 12.5856 8.31259 12.482 8.02355 12.2877C7.73451 12.0935 7.50924 11.8175 7.37621 11.4945C7.24318 11.1715 7.20837 10.8162 7.27619 10.4733C7.34401 10.1304 7.51141 9.8155 7.75721 9.56831C8.00302 9.32112 8.31619 9.15278 8.65714 9.08458C8.99808 9.01638 9.35148 9.05139 9.67265 9.18516C9.99381 9.31894 10.2683 9.54548 10.4614 9.83614C10.6546 10.1268 10.7576 10.4685 10.7576 10.8181C10.757 11.2867 10.5717 11.7359 10.2422 12.0672C9.91269 12.3986 9.46599 12.585 9.00003 12.5856Z" fill="#899CA8"/>
<path d="M17.9243 9.14317C17.1201 7.56798 15.8873 6.25504 14.3696 5.35733L16.273 3.44322C16.3389 3.3777 16.3913 3.29974 16.4271 3.2138C16.4629 3.12787 16.4815 3.03566 16.4817 2.94249C16.482 2.84931 16.4639 2.757 16.4286 2.67086C16.3932 2.58473 16.3413 2.50647 16.2758 2.44058C16.2103 2.3747 16.1325 2.32248 16.0468 2.28695C15.9612 2.25141 15.8694 2.23325 15.7767 2.23351C15.6841 2.23377 15.5924 2.25245 15.5069 2.28847C15.4215 2.32448 15.3439 2.37713 15.2788 2.44339L13.0459 4.68883C11.9814 4.24745 10.8522 3.9847 9.70313 3.91106V0.707C9.70313 0.519492 9.62906 0.339663 9.49721 0.207075C9.36537 0.0744867 9.18655 0 9.00009 0C8.81363 0 8.6348 0.0744867 8.50296 0.207075C8.37111 0.339663 8.29704 0.519492 8.29704 0.707V3.91183C7.14798 3.98547 6.01873 4.24822 4.95428 4.68961L2.72178 2.44378C2.65663 2.37752 2.5791 2.32487 2.49364 2.28886C2.40819 2.25284 2.3165 2.23416 2.22384 2.2339C2.13119 2.23364 2.03939 2.2518 1.95374 2.28734C1.86809 2.32287 1.79026 2.37509 1.72475 2.44097C1.65923 2.50686 1.60731 2.58512 1.57197 2.67125C1.53663 2.75739 1.51857 2.8497 1.51883 2.94287C1.51909 3.03605 1.53766 3.12826 1.57348 3.21419C1.6093 3.30013 1.66165 3.3781 1.72754 3.44361L3.63094 5.35772C2.11373 6.25549 0.881375 7.56828 0.0774266 9.14317C0.00253317 9.30922 -0.00566888 9.49795 0.0545334 9.66994C0.114736 9.84193 0.238687 9.98388 0.400499 10.0661C0.562312 10.1484 0.749473 10.1646 0.922894 10.1114C1.09631 10.0582 1.24258 9.93966 1.33115 9.78056C2.63554 7.18278 5.5417 5.30289 9.00009 5.30289C12.4585 5.30289 15.3662 7.18511 16.6675 9.78056C16.7091 9.86344 16.7665 9.93727 16.8365 9.99783C16.9065 10.0584 16.9877 10.1045 17.0754 10.1335C17.1631 10.1625 17.2556 10.1739 17.3477 10.1669C17.4398 10.16 17.5296 10.1349 17.612 10.093C17.6944 10.0512 17.7679 9.99341 17.8281 9.92302C17.8883 9.85264 17.9342 9.77101 17.963 9.68281C17.9919 9.59461 18.0032 9.50155 17.9962 9.40896C17.9893 9.31637 17.9644 9.22605 17.9227 9.14317H17.9243Z" fill="#899CA8"/>
</g>
<defs>
<clipPath id="clip0_54_2256">
<rect width="18" height="14" fill="white"/>
</clipPath>
</defs>
</svg>
