<svg width="21" height="20" viewBox="0 0 21 20" fill="none" xmlns="http://www.w3.org/2000/svg">
<path fill-rule="evenodd" clip-rule="evenodd" d="M20.5 10C20.5 15.5228 16.0228 20 10.5 20C4.97715 20 0.5 15.5228 0.5 10C0.5 4.47715 4.97715 0 10.5 0C16.0228 0 20.5 4.47715 20.5 10ZM10.5 5.75C9.87868 5.75 9.375 6.25368 9.375 6.875C9.375 7.28921 9.03921 7.625 8.625 7.625C8.21079 7.625 7.875 7.28921 7.875 6.875C7.875 5.42525 9.05025 4.25 10.5 4.25C11.9497 4.25 13.125 5.42525 13.125 6.875C13.125 7.58584 12.8415 8.23198 12.383 8.70396C12.2907 8.79894 12.2027 8.88687 12.1187 8.97076C11.9029 9.18641 11.7138 9.37533 11.5479 9.5885C11.3289 9.86992 11.25 10.0768 11.25 10.25V11C11.25 11.4142 10.9142 11.75 10.5 11.75C10.0858 11.75 9.75 11.4142 9.75 11V10.25C9.75 9.59481 10.055 9.06444 10.3642 8.66721C10.5929 8.37329 10.8804 8.08634 11.1138 7.85346C11.1842 7.78321 11.2496 7.71789 11.307 7.65877C11.5046 7.45543 11.625 7.18004 11.625 6.875C11.625 6.25368 11.1213 5.75 10.5 5.75ZM10.5 15C11.0523 15 11.5 14.5523 11.5 14C11.5 13.4477 11.0523 13 10.5 13C9.94771 13 9.5 13.4477 9.5 14C9.5 14.5523 9.94771 15 10.5 15Z" fill="#2B6EFE"/>
</svg>
