<svg id="svg" fill="#000000" stroke="#000000" width="200px" height="200px" version="1.1" viewBox="144 144 512 512" xmlns="http://www.w3.org/2000/svg">
    <g id="IconSvg_bgCarrier" stroke-width="0"></g>
    <g id="IconSvg_tracerCarrier" stroke-linecap="round" stroke-linejoin="round" stroke="#CCCCCC"></g>
     <g id="IconSvg_iconCarrier">
      <path xmlns="http://www.w3.org/2000/svg" d="m400 190.08c-55.676 0-109.07 22.117-148.44 61.484s-61.484 92.762-61.484 148.44c0 55.672 22.117 109.07 61.484 148.43 39.367 39.367 92.762 61.484 148.44 61.484 55.672 0 109.07-22.117 148.43-61.484 39.367-39.367 61.484-92.762 61.484-148.43-0.085938-55.648-22.234-108.99-61.582-148.34-39.348-39.348-92.691-61.492-148.34-61.582zm83.969 230.91h-167.94c-7.5 0-14.43-4.0039-18.18-10.496-3.75-6.4961-3.75-14.5 0-20.992 3.75-6.4961 10.68-10.496 18.18-10.496h167.94-0.003906c7.5 0 14.434 4 18.18 10.496 3.75 6.4922 3.75 14.496 0 20.992-3.7461 6.4922-10.68 10.496-18.18 10.496z"></path>

      </g>
      </svg>