<svg width="14" height="13" viewBox="0 0 14 13" fill="none" xmlns="http://www.w3.org/2000/svg">
<path d="M4.93362 1.38894C4.93372 1.28354 4.97564 1.18249 5.05017 1.10797C5.12469 1.03344 5.22574 0.991526 5.33114 0.991422H8.29869C8.40409 0.991526 8.50514 1.03344 8.57966 1.10797C8.65419 1.18249 8.6961 1.28354 8.69621 1.38894V2.78538H9.68704V1.38894C9.68662 1.0207 9.54015 0.667658 9.27976 0.407272C9.01938 0.146886 8.66634 0.000417922 8.2981 0H5.33114C4.9629 0.000417922 4.60986 0.146886 4.34947 0.407272C4.08908 0.667658 3.94262 1.0207 3.9422 1.38894V2.78538H4.93362V1.38894ZM13.3912 3.32895H0.23922C0.175687 3.32911 0.114812 3.35447 0.0699604 3.39947C0.0251092 3.44447 -5.2403e-05 3.50543 8.19446e-08 3.56896V12.7608C0.000156426 12.8242 0.0254101 12.8849 0.0702388 12.9298C0.115067 12.9746 0.175823 12.9998 0.23922 13H13.3912C13.4546 12.9998 13.5154 12.9746 13.5602 12.9298C13.605 12.8849 13.6303 12.8242 13.6304 12.7608V3.56896C13.6305 3.50543 13.6053 3.44447 13.5605 3.39947C13.5156 3.35447 13.4547 3.32911 13.3912 3.32895ZM9.56466 8.434C9.56466 8.98629 9.11695 9.434 8.56466 9.434H7.99059V10.0081C7.99059 10.5604 7.54287 11.0081 6.99059 11.0081H6.64082C6.08853 11.0081 5.64082 10.5604 5.64082 10.0081V9.434H5.06576C4.51347 9.434 4.06576 8.98629 4.06576 8.434V8.08325C4.06576 7.53096 4.51347 7.08325 5.06576 7.08325H5.64082V6.50917C5.64082 5.95689 6.08854 5.50917 6.64082 5.50917H6.99157C7.54386 5.50917 7.99157 5.95689 7.99157 6.50917V7.08325H8.56466C9.11695 7.08325 9.56466 7.53096 9.56466 8.08325V8.434ZM7.36964 6.68474C7.36964 6.37854 7.12141 6.13031 6.81521 6.13031C6.50901 6.13031 6.26078 6.37854 6.26078 6.68474V7.70439H5.23926C4.93311 7.70439 4.68493 7.95257 4.68493 8.25872C4.68493 8.56487 4.93311 8.81305 5.23926 8.81305H6.26078V9.8325C6.26078 10.1387 6.50901 10.3869 6.81521 10.3869C7.12141 10.3869 7.36964 10.1387 7.36964 9.8325V8.81305H8.38919C8.69534 8.81305 8.94352 8.56487 8.94352 8.25872C8.94352 7.95257 8.69534 7.70439 8.38919 7.70439H7.36964V6.68474Z" fill="white"/>
</svg>
