<svg width="49" height="49" viewBox="0 0 49 49" fill="none" xmlns="http://www.w3.org/2000/svg">
<path fill-rule="evenodd" clip-rule="evenodd" d="M4.23708 1.6339V5.97949C4.23917 6.36618 4.40221 6.73408 4.68648 6.99532C4.99165 7.28168 5.39506 7.44054 5.81313 7.44054H20.012C20.4112 7.44472 20.7958 7.29004 21.0822 7.01204C21.3581 6.74031 21.5127 6.36826 21.5106 5.97946V1.63388C21.5086 1.22628 21.3497 0.835402 21.0633 0.544844C20.7874 0.260573 20.4091 0.0996264 20.012 0.0975342H5.77355C5.36805 0.0996243 4.97925 0.264752 4.69292 0.553202C4.40447 0.837473 4.23934 1.22625 4.23516 1.63175L4.23708 1.6339ZM14.8384 24.3841H10.9088V27.9501H7.02933V32.6594H10.9088V36.2295H14.8384V32.6594H18.7179V27.9501H14.8384V24.38V24.3841ZM33.0714 48.0975H23.354C21.964 47.7777 20.7224 46.996 19.8341 45.8798C17.9696 43.5283 17.9696 40.2051 19.8341 37.8534C20.7224 36.7372 21.964 35.9554 23.354 35.6356H33.0714V48.0975ZM34.0308 48.0975H43.7482C45.157 47.7735 46.4153 46.9855 47.3246 45.861C49.2204 43.5345 49.2204 40.1986 47.3246 37.872C46.4153 36.7495 45.157 35.9615 43.7503 35.6354H34.0308L34.0308 48.0975ZM35.3393 34.6741L27.7767 26.3635L20.5845 32.8638C19.7777 34.0239 19.3805 35.4202 19.4516 36.8311C20.457 35.7526 21.7654 35.0042 23.2056 34.6865C23.2411 34.6803 23.2746 34.6761 23.3101 34.6761L35.3393 34.6741ZM28.4852 25.7176L35.6191 19.1749C36.8816 18.4664 38.3448 18.203 39.7766 18.4246C41.2167 18.6441 42.5357 19.3527 43.5181 20.4291C44.49 21.5014 45.0628 22.8788 45.1359 24.3253C45.2132 25.7717 44.8077 27.2014 43.9842 28.3908L37.0905 34.6739H36.6328L28.4852 25.7176ZM0.595367 40.4183L0.658075 20.1911H25.1827L25.2496 27.3438C23.4708 28.9616 21.6899 30.5774 19.9049 32.191C19.8735 32.2182 19.8442 32.2516 19.8212 32.2871C19.7711 32.3603 19.7209 32.4314 19.6728 32.5045V26.9925H15.7934V23.4224L9.95118 23.4245V26.9946H6.07172V33.6164H9.95118V37.1865H15.7977V33.6164H19.0814C18.5003 34.9688 18.3394 36.4654 18.6195 37.9097C18.1345 38.6768 17.7938 39.5275 17.6182 40.418L0.595367 40.4183ZM18.1658 44.9939C17.7102 44.0156 17.474 42.9475 17.476 41.869C17.476 41.7039 17.4823 41.5408 17.4928 41.3799L0.593307 41.3778L0.587036 43.4576C0.589126 43.8443 0.752162 44.2122 1.03643 44.4734C1.3416 44.7598 1.74501 44.9186 2.16308 44.9186L18.1614 44.9918L18.1658 44.9939ZM0.660114 19.2337H25.174L25.1594 17.6619V17.6577C25.1594 16.4558 24.154 16.0712 23.0107 15.6344C21.1127 14.909 18.9013 14.0625 18.9556 10.0619L18.8929 8.40219L6.87194 8.4001V10.0409C6.90956 12.5492 5.38999 14.8171 3.05728 15.7386C2.74166 15.8557 2.41977 15.9498 2.09368 16.025C1.31613 16.2173 0.663948 16.3783 0.663948 17.6575L0.660114 19.2337Z" fill="#2268FF"/>
</svg>
