<svg width="49" height="48" viewBox="0 0 49 48" fill="none" xmlns="http://www.w3.org/2000/svg">
<path d="M24.25 9.03805L17.7876 15.4537L25.5378 23.2039L23.0559 25.6859L15.3056 17.9356L11.1612 22.08L18.9115 29.8302L16.4295 32.3122L8.67927 24.562L3.99634 29.2449C3.2522 29.9657 2.76809 30.9129 2.6198 31.9382C2.47151 32.9636 2.66741 34.0091 3.17683 34.9112L5.51829 39.3366L0.25 44.6985L3.55146 48L8.91341 42.7317L13.3388 45.0732C14.0525 45.4777 14.8599 45.6876 15.6802 45.6819C16.2982 45.6824 16.9101 45.5606 17.4808 45.3235C18.0514 45.0864 18.5695 44.7387 19.0051 44.3005L39.2119 24L24.25 9.03805ZM42.5134 17.4439L38.3222 13.2293L41.6471 9.9278L44.9485 13.2293L48.25 9.9278L38.3222 0L35.0207 3.30146L38.3222 6.62634L35.0207 9.9278L30.8061 5.73658L26.732 1.63902L23.4305 4.9639L25.8422 7.37561V7.39902L40.851 22.4078H40.8744L43.2861 24.8195L46.611 21.518L42.5368 17.4439H42.5134Z" fill="#2268FF"/>
</svg>
