<svg width="54" height="49" viewBox="0 0 54 49" fill="none" xmlns="http://www.w3.org/2000/svg">
<path d="M34.9687 31.7507L32.3017 36.2513C31.7461 37.1958 30.8015 37.7514 29.6903 37.7514C29.1346 37.7514 28.6346 37.5848 28.1345 37.3069C27.4678 36.8625 26.9677 36.2513 26.7455 35.4734C26.5232 34.6955 26.6343 33.9177 27.0788 33.1954L27.2455 32.862C26.1898 32.3619 24.523 31.8619 21.9116 31.9174C16.6887 32.0285 11.9659 35.5845 12.4104 33.8621C12.7994 32.3619 13.5772 29.6394 14.4107 27.1391C15.633 23.4164 17.6888 18.138 19.7446 17.9713C22.4116 17.7491 23.5784 17.1379 25.3564 17.1379C27.5789 17.1379 28.7457 16.36 28.7457 15.3599C28.7457 14.3598 27.8011 14.5265 27.2455 14.1931C26.9121 13.9709 28.579 12.6374 29.1346 11.4706C29.6903 10.2482 25.6898 8.91471 23.3006 8.52577C20.9114 8.1924 19.9113 9.3592 19.189 10.4149C18.4667 11.4706 15.1885 15.6933 9.68789 21.0828C5.68741 25.1388 2.24256 32.5286 0.742386 36.029C0.131203 37.5292 0.242327 39.2516 1.18688 40.6407C5.63185 47.2526 20.7448 48.1971 25.8009 47.1414C29.9125 49.4751 45.6366 50.6419 45.6366 40.9185C45.6921 33.2509 40.4137 31.4174 34.9687 31.7507Z" fill="#2268FF"/>
<path d="M32.8017 26.9168L33.1351 27.139L28.9124 34.3065C28.6346 34.751 28.8012 35.3067 29.2457 35.5845C29.6902 35.8623 30.2459 35.6956 30.5237 35.2511L34.7464 28.0836L35.0798 28.3058C35.5798 28.5836 36.191 28.417 36.4688 27.9725L37.1356 26.8612L33.1351 24.472L32.4683 25.5833C32.135 26.0278 32.3017 26.639 32.8017 26.9168Z" fill="#2268FF"/>
<path d="M50.6927 10.7482L40.5804 4.74751C40.1359 4.4697 39.5803 4.63639 39.3025 5.08089C39.0247 5.52538 39.1914 6.081 39.6359 6.35881L40.7471 7.02556L39.5803 9.0258L42.4695 10.7482C42.914 11.026 43.0252 11.5817 42.8029 12.0262C42.5251 12.4706 41.9695 12.5818 41.525 12.3595L38.6358 10.6371L37.1911 13.1374L40.0804 14.8598C40.5249 15.1376 40.636 15.6933 40.4137 16.1377C40.1359 16.5822 39.5803 16.6934 39.1358 16.4711L36.2466 14.7487L34.802 17.249L37.6912 18.9714C38.1357 19.2492 38.2468 19.8048 38.0246 20.2493C37.7468 20.6938 37.1911 20.805 36.7466 20.5827L33.8574 18.8603L32.7462 20.7494C32.2461 21.5828 32.5239 22.6385 33.3574 23.083L38.3024 26.0278C39.1358 26.5279 40.1915 26.2501 40.636 25.4166L48.6369 11.8595L49.7482 12.5262C50.1927 12.804 50.7483 12.6373 51.0261 12.1928C51.3039 11.5817 51.1372 11.026 50.6927 10.7482Z" fill="#2268FF"/>
<path d="M52.693 4.74747L44.8587 0.135819C44.4142 -0.141992 43.8586 0.0246942 43.5808 0.469191C43.303 0.913688 43.4697 1.46931 43.9142 1.74712L45.6922 2.8028L44.2475 5.24753L48.5258 7.74783L49.9704 5.3031L51.7484 6.35878C52.1929 6.63659 52.7485 6.4699 53.0264 6.0254C53.2486 5.58091 53.1375 5.02529 52.693 4.74747Z" fill="#2268FF"/>
</svg>
