<svg width="52" height="50" viewBox="0 0 52 50" fill="none" xmlns="http://www.w3.org/2000/svg">
<path d="M12.7442 34.3082C7.54844 32.2332 4.52325 27.1039 4.52325 21.7998C4.52325 14.9202 9.96548 8.12182 13.7853 4.19739C15.8599 2.06604 19.0238 2.06604 21.0984 4.19739C22.254 5.38466 23.2314 6.83496 24.4884 8.47097" stroke="#141B34" stroke-width="1.5" stroke-linecap="round"/>
<path d="M1 24.7398C1 16.386 7.92646 8.13087 12.7881 3.36549C15.4285 0.77742 19.4553 0.777421 22.0956 3.36549C26.9573 8.13087 33.8837 16.386 33.8837 24.7398C33.8837 32.9302 27.6575 41.3547 17.4419 41.3547C7.2262 41.3547 1 32.9302 1 24.7398Z" fill="#CBDBFF" stroke="white" stroke-width="2"/>
<path d="M18.6163 32.9607C18.6163 24.607 25.5427 16.3518 30.4044 11.5864C33.0447 8.99837 37.0716 8.99837 39.7119 11.5864C44.5736 16.3518 51.5 24.607 51.5 32.9607C51.5 41.1512 45.2738 49.5756 35.0581 49.5756C24.8425 49.5756 18.6163 41.1512 18.6163 32.9607Z" fill="#2268FF"/>
<path d="M42.1046 34.3081C42.1046 39.497 38.5814 41.3546 35.0581 41.3546" stroke="white" stroke-width="1.5" stroke-linecap="round" stroke-linejoin="round"/>
</svg>
