<svg width="26" height="49" viewBox="0 0 26 49" fill="none" xmlns="http://www.w3.org/2000/svg">
<path d="M8.89114 31.4814C8.89328 33.7457 9.79298 35.9158 11.3932 37.5183C12.9956 39.1185 15.1656 40.0203 17.43 40.0246H17.4429C19.7072 40.0225 21.8793 39.1206 23.4797 37.5183C25.0799 35.9137 25.9796 33.7416 25.9775 31.4749C25.9754 29.2106 25.0757 27.0384 23.4733 25.4381C21.8688 23.8357 19.6966 22.9381 17.4321 22.9381C15.1656 22.9381 12.9934 23.84 11.3931 25.4423C9.7907 27.0426 8.89114 29.217 8.89114 31.4814ZM21.5729 32.5011C21.5879 33.6086 21.1595 34.6754 20.3819 35.4659C19.6064 36.2542 18.5438 36.6977 17.4363 36.6977C16.331 36.6977 15.2684 36.2542 14.4908 35.4659C13.7132 34.6754 13.2848 33.6086 13.3019 32.5011C13.3019 30.4553 16.226 27.2228 16.8151 26.597C16.98 26.43 17.2049 26.3378 17.4406 26.3378C17.6762 26.3378 17.9011 26.43 18.0661 26.597C18.6466 27.2247 21.5707 30.4573 21.5707 32.5011H21.5729Z" fill="#2268FF"/>
<path d="M5.10207 12.636H2.84632V41.2237C2.8399 44.9254 5.77254 47.9652 9.47431 48.0935C13.1739 48.2199 16.3101 45.3879 16.5564 41.6948C13.1139 41.3991 10.0507 39.3876 8.40986 36.3436C6.76894 33.3016 6.77321 29.6366 8.42058 26.5968C10.0679 23.5592 13.1356 21.5541 16.5824 21.267V12.6363H8.03505C7.56162 12.6363 7.17817 12.2528 7.17817 11.7794C7.17817 11.306 7.56162 10.9225 8.03505 10.9225H16.5802V6.34894C16.5246 6.34894 16.4731 6.36608 16.4196 6.36608L3.00951 6.36394C2.95381 6.36394 2.9024 6.35109 2.8467 6.3468V10.9226H5.10245C5.57587 10.9226 5.95932 11.306 5.95932 11.7794C5.95932 12.2529 5.57549 12.636 5.10207 12.636Z" fill="#2268FF"/>
<path d="M3.0091 4.65015H16.4192C17.6574 4.62659 18.6513 3.61548 18.6513 2.37516C18.6513 1.13484 17.6574 0.12156 16.4192 0.0980338H3.0091C2.39857 0.0851803 1.80733 0.320822 1.37245 0.749261C0.93544 1.1777 0.689087 1.76254 0.689087 2.37516C0.689087 2.9857 0.93544 3.57052 1.37245 3.99893C1.80732 4.42737 2.39857 4.66299 3.0091 4.65015Z" fill="#2268FF"/>
<path d="M15.0139 32.501C15.001 33.1522 15.2495 33.7799 15.7058 34.2447C16.1621 34.7075 16.7855 34.9688 17.4345 34.9688C18.0858 34.9688 18.7091 34.7075 19.1633 34.2447C19.6196 33.7799 19.8702 33.1522 19.8573 32.501C19.8573 31.6441 18.5913 29.8318 17.4345 28.4736C16.2798 29.8318 15.0139 31.6484 15.0139 32.501Z" fill="#2268FF"/>
</svg>
