<svg width="54" height="49" viewBox="0 0 54 49" fill="none" xmlns="http://www.w3.org/2000/svg">
<g clip-path="url(#clip0_190_53384)">
<path d="M27.545 8.81934C29.5036 7.66856 31.4621 6.51728 33.4207 5.36552C35.697 4.03386 37.9805 2.71247 40.2553 1.3764C43.744 -0.676821 47.7165 -0.236847 50.6602 2.52914C53.7205 5.40659 53.993 10.7318 51.2839 13.9847C50.2507 15.2269 48.9144 16.01 47.5606 16.7976C43.7542 19.0092 39.9488 21.2228 36.1443 23.4383C36.0804 23.4717 36.0148 23.5016 35.9476 23.5278C35.6095 23.3811 35.5104 23.0453 35.3647 22.7695C32.8388 18.3316 30.3012 13.9001 27.7519 9.47491C27.6339 9.27398 27.4605 9.0848 27.545 8.81934Z" fill="#CBDBFF"/>
<path d="M24.2763 48.0726C22.1137 48.0784 19.9516 48.0838 17.79 48.0887C14.8653 48.0887 11.9391 48.1136 9.01432 48.0784C4.99371 48.0315 1.4715 44.8519 0.930849 40.8262C0.298394 36.1184 3.44026 31.811 8.08458 31.1848C9.97903 30.9296 11.8968 31.1379 13.8044 31.1085C14.0171 31.1085 14.2416 31.1701 14.4427 31.0455C14.5884 30.934 14.7501 30.956 14.9119 30.956C17.5015 30.956 20.091 30.9839 22.6791 30.9428C22.8249 30.9428 22.9706 30.9252 23.0872 31.044C23.4748 31.1907 23.8814 31.0616 24.2749 31.1261C24.4556 31.3388 24.4526 31.5984 24.4526 31.8594C24.4526 37.0218 24.4526 42.1847 24.4526 47.3481C24.4526 47.5989 24.4628 47.8614 24.2763 48.0726Z" fill="#CBDBFF"/>
<path d="M24.2764 48.0726C24.2764 42.4233 24.2764 36.7745 24.2764 31.1262C25.6928 31.1262 27.1093 31.1101 28.5243 31.1086C32.1024 31.1086 35.68 31.1086 39.2571 31.1086C40.4228 31.1038 41.5768 31.342 42.6465 31.8082C43.7162 32.2744 44.6784 32.9584 45.4724 33.8173C46.2665 34.6762 46.8751 35.6913 47.2601 36.7987C47.6451 37.906 47.798 39.0816 47.7093 40.2513C47.4178 44.4897 43.7907 48.036 39.585 48.0726C34.4816 48.1181 29.3783 48.077 24.2764 48.0726Z" fill="#2268FF"/>
<path d="M23.0886 31.044C22.7826 31.0719 22.4766 31.1218 22.172 31.1218C19.8287 31.1291 17.4854 31.1218 15.1421 31.1218C14.9065 31.1369 14.6702 31.1096 14.4441 31.0411C11.7161 29.2973 10.2676 26.8071 10.3361 23.541C10.4002 20.533 11.7059 18.0955 14.2619 16.5453C18.5973 13.9172 23.0143 11.4255 27.3963 8.87654C27.4436 8.85293 27.4922 8.83235 27.5421 8.81494C29.2509 11.8029 30.9603 14.7908 32.6702 17.7787C33.7631 19.6931 34.8541 21.608 35.9432 23.5234L25.3911 29.683L23.0886 31.044Z" fill="#2268FF"/>
<path d="M39.5456 33.4433C41.8919 33.4595 44.1361 35.0845 44.9784 37.2814C45.2761 37.988 45.4298 38.7475 45.4301 39.515C45.4184 39.9711 45.0847 40.3554 44.6869 40.3671C44.2891 40.3788 43.9466 40.0151 43.9058 39.5385C43.7032 37.1919 42.5389 35.7254 40.3821 35.0669C40.0761 34.9745 39.7715 35.0082 39.467 34.9789C38.7718 34.9143 38.3813 34.4524 38.5809 33.8995C38.7806 33.3466 39.2484 33.4287 39.5456 33.4433Z" fill="white"/>
<path d="M12.6051 23.3973C12.6794 21.5171 13.6062 19.7924 15.3855 18.5341C15.4457 18.4938 15.5091 18.4585 15.575 18.4285C16.0311 18.1894 16.4493 18.2598 16.6869 18.6118C16.9244 18.9638 16.8064 19.4258 16.3721 19.7308C15.6428 20.2135 15.0459 20.8732 14.6365 21.6491C13.9428 23.0189 13.9997 24.3843 14.5826 25.7644C14.6321 25.8817 14.705 25.9902 14.7472 26.1105C14.893 26.5505 14.7472 27.0198 14.3931 27.1371C13.9676 27.2838 13.6047 27.1723 13.373 26.747C12.879 25.7981 12.5963 24.7905 12.6051 23.3973Z" fill="white"/>
</g>
<defs>
<clipPath id="clip0_190_53384">
<rect width="52.2985" height="48" fill="white" transform="translate(0.850708 0.0975342)"/>
</clipPath>
</defs>
</svg>
