<svg width="28" height="28" viewBox="0 0 28 28" fill="none" xmlns="http://www.w3.org/2000/svg">
<circle cx="14" cy="14" r="12.6316" fill="#2268FF" stroke="white" stroke-width="1.26316"/>
<path d="M13.8422 12.6716C12.7086 12.6716 11.7896 13.5906 11.7896 14.7242C11.7896 15.8578 12.7086 16.7768 13.8422 16.7768C14.9758 16.7768 15.8948 15.8578 15.8948 14.7242C15.8948 13.5906 14.9758 12.6716 13.8422 12.6716Z" fill="white"/>
<path fill-rule="evenodd" clip-rule="evenodd" d="M16.1476 7.92911C14.8328 6.76045 12.8516 6.76045 11.5369 7.92911L11.4006 8.05023C11.0266 8.38267 10.5436 8.5663 10.0432 8.5663C8.39162 8.5663 7.05273 9.90519 7.05273 11.5568V14.7528C7.05273 15.9127 7.05273 16.8219 7.13088 17.5433C7.21063 18.2794 7.37631 18.8758 7.7463 19.3851C7.9703 19.6934 8.24142 19.9645 8.54972 20.1885C9.05898 20.5585 9.65543 20.7242 10.3916 20.8039C11.1129 20.8821 12.0221 20.8821 13.182 20.8821H14.5024C15.6623 20.8821 16.5715 20.8821 17.2929 20.8039C18.029 20.7242 18.6254 20.5585 19.1347 20.1885C19.443 19.9645 19.7141 19.6934 19.9381 19.3851C20.3081 18.8758 20.4738 18.2794 20.5535 17.5433C20.6317 16.8219 20.6317 15.9127 20.6317 14.7528V11.5568C20.6317 9.90519 19.2928 8.5663 17.6412 8.5663C17.1408 8.5663 16.6578 8.38267 16.2838 8.05023L16.1476 7.92911ZM10.8422 14.7242C10.8422 13.0673 12.1854 11.7242 13.8422 11.7242C15.4991 11.7242 16.8422 13.0673 16.8422 14.7242C16.8422 16.3811 15.4991 17.7242 13.8422 17.7242C12.1854 17.7242 10.8422 16.3811 10.8422 14.7242ZM17.6317 12.1979C17.2829 12.1979 17.0001 11.9151 17.0001 11.5663C17.0001 11.2175 17.2829 10.9348 17.6317 10.9348C17.9805 10.9348 18.2633 11.2175 18.2633 11.5663C18.2633 11.9151 17.9805 12.1979 17.6317 12.1979Z" fill="white"/>
</svg>
