<svg width="20" height="20" viewBox="0 0 20 20" fill="none" xmlns="http://www.w3.org/2000/svg">
<path fill-rule="evenodd" clip-rule="evenodd" d="M3.54175 7.09549C3.54175 3.71049 6.4763 1.04163 10.0001 1.04163C13.5239 1.04163 16.4584 3.71049 16.4584 7.09549C16.4584 10.2714 14.4893 14 11.3124 15.3576C10.4784 15.7141 9.52179 15.7141 8.68776 15.3576C5.51082 14 3.54175 10.2714 3.54175 7.09549ZM10.0001 2.29163C7.08054 2.29163 4.79175 4.48393 4.79175 7.09549C4.79175 9.8691 6.54627 13.0831 9.17896 14.2082C9.69925 14.4305 10.3009 14.4305 10.8212 14.2082C13.4539 13.0831 15.2084 9.8691 15.2084 7.09549C15.2084 4.48393 12.9196 2.29163 10.0001 2.29163ZM10.0001 6.45829C9.42478 6.45829 8.95841 6.92466 8.95841 7.49996C8.95841 8.07526 9.42478 8.54163 10.0001 8.54163C10.5754 8.54163 11.0417 8.07526 11.0417 7.49996C11.0417 6.92466 10.5754 6.45829 10.0001 6.45829ZM7.70841 7.49996C7.70841 6.23431 8.73443 5.20829 10.0001 5.20829C11.2657 5.20829 12.2917 6.23431 12.2917 7.49996C12.2917 8.76561 11.2657 9.79163 10.0001 9.79163C8.73443 9.79163 7.70841 8.76561 7.70841 7.49996ZM2.99626 12.4971C3.22795 12.753 3.20835 13.1482 2.95248 13.3799C2.4794 13.8083 2.29175 14.2183 2.29175 14.5833C2.29175 15.2197 2.89509 16.004 4.364 16.665C5.77425 17.2996 7.76634 17.7083 10.0001 17.7083C12.2338 17.7083 14.2259 17.2996 15.6362 16.665C17.1051 16.004 17.7084 15.2197 17.7084 14.5833C17.7084 14.2183 17.5208 13.8083 17.0477 13.3799C16.7918 13.1482 16.7722 12.753 17.0039 12.4971C17.2356 12.2412 17.6308 12.2216 17.8867 12.4533C18.5225 13.0291 18.9584 13.7509 18.9584 14.5833C18.9584 16.018 17.6963 17.1087 16.1491 17.8049C14.5433 18.5275 12.3687 18.9583 10.0001 18.9583C7.63145 18.9583 5.45687 18.5275 3.85105 17.8049C2.30389 17.1087 1.04175 16.018 1.04175 14.5833C1.04175 13.7509 1.47762 13.0291 2.11346 12.4533C2.36933 12.2216 2.76457 12.2412 2.99626 12.4971Z" fill="#2268FF"/>
</svg>
