<svg width="19" height="20" viewBox="0 0 19 20" fill="none" xmlns="http://www.w3.org/2000/svg">
<path fill-rule="evenodd" clip-rule="evenodd" d="M1.67157 1.17157C0.5 2.34315 0.5 4.22876 0.5 8V12C0.5 15.7712 0.5 17.6569 1.67157 18.8284C2.84315 20 4.72876 20 8.5 20H10.5C14.2712 20 16.1569 20 17.3284 18.8284C18.5 17.6569 18.5 15.7712 18.5 12V8C18.5 4.22876 18.5 2.34315 17.3284 1.17157C16.1569 0 14.2712 0 10.5 0H8.5C4.72876 0 2.84315 0 1.67157 1.17157ZM10.25 4C10.25 3.58579 9.9142 3.25 9.49998 3.25C9.08577 3.25 8.74998 3.58579 8.74998 4V5.25H7.49997C7.08575 5.25 6.74997 5.58579 6.74997 6C6.74997 6.41421 7.08575 6.75 7.49997 6.75H8.74998L8.74998 8C8.74998 8.41421 9.08577 8.75 9.49998 8.75C9.9142 8.75 10.25 8.41421 10.25 8L10.25 6.75L11.5 6.75C11.9142 6.75 12.25 6.41421 12.25 6C12.25 5.58579 11.9142 5.25 11.5 5.25H10.25V4ZM5.5 11.25C5.08579 11.25 4.75 11.5858 4.75 12C4.75 12.4142 5.08579 12.75 5.5 12.75H13.5C13.9142 12.75 14.25 12.4142 14.25 12C14.25 11.5858 13.9142 11.25 13.5 11.25H5.5ZM6.5 15.25C6.08579 15.25 5.75 15.5858 5.75 16C5.75 16.4142 6.08579 16.75 6.5 16.75H12.5C12.9142 16.75 13.25 16.4142 13.25 16C13.25 15.5858 12.9142 15.25 12.5 15.25H6.5Z" fill="#2268FF"/>
</svg>
