<svg width="25" height="24" viewBox="0 0 25 24" fill="none" xmlns="http://www.w3.org/2000/svg">
<path d="M9.5 2C6.88 2 4.75 4.13 4.75 6.75C4.75 9.32 6.76 11.4 9.38 11.49C9.46 11.48 9.54 11.48 9.6 11.49C9.62 11.49 9.63 11.49 9.65 11.49C9.66 11.49 9.66 11.49 9.67 11.49C12.23 11.4 14.24 9.32 14.25 6.75C14.25 4.13 12.12 2 9.5 2Z" fill="#2B6EFE"/>
<path d="M14.58 14.15C11.79 12.29 7.23996 12.29 4.42996 14.15C3.15996 15 2.45996 16.15 2.45996 17.38C2.45996 18.61 3.15996 19.75 4.41996 20.59C5.81996 21.53 7.65996 22 9.49996 22C11.34 22 13.18 21.53 14.58 20.59C15.84 19.74 16.54 18.6 16.54 17.36C16.53 16.13 15.84 14.99 14.58 14.15Z" fill="#2B6EFE"/>
<path d="M20.4899 7.33998C20.6499 9.27998 19.2699 10.98 17.3599 11.21C17.3499 11.21 17.3499 11.21 17.3399 11.21H17.3099C17.2499 11.21 17.1899 11.21 17.1399 11.23C16.1699 11.28 15.2799 10.97 14.6099 10.4C15.6399 9.47998 16.2299 8.09998 16.1099 6.59998C16.0399 5.78998 15.7599 5.04998 15.3399 4.41998C15.7199 4.22998 16.1599 4.10998 16.6099 4.06998C18.5699 3.89998 20.3199 5.35998 20.4899 7.33998Z" fill="#2B6EFE"/>
<path d="M22.4902 16.59C22.4102 17.56 21.7902 18.4 20.7502 18.97C19.7502 19.52 18.4902 19.78 17.2402 19.75C17.9602 19.1 18.3802 18.29 18.4602 17.43C18.5602 16.19 17.9702 15 16.7902 14.05C16.1202 13.52 15.3402 13.1 14.4902 12.79C16.7002 12.15 19.4802 12.58 21.1902 13.96C22.1102 14.7 22.5802 15.63 22.4902 16.59Z" fill="#2B6EFE"/>
</svg>
