<svg width="45" height="48" viewBox="0 0 45 48" fill="none" xmlns="http://www.w3.org/2000/svg">
<g clip-path="url(#clip0_189_9591)">
<path d="M8.75074 27.914C8.35701 29.1177 8.23282 30.2449 8.10722 31.3889C8.06348 31.7975 7.58225 32.2228 7.16453 32.4897C5.8775 33.2959 4.89811 34.4148 4.48321 35.8019C3.91873 37.6616 3.40646 39.5728 3.72539 41.5687C3.91449 42.7571 4.77816 43.5369 6.08072 43.6245C6.45064 43.6446 6.82142 43.6446 7.19134 43.6245C7.81228 43.5953 8.24552 43.1713 8.24976 42.614C8.25399 42.0566 7.79393 41.6313 7.18005 41.6174C6.73975 41.6077 6.29804 41.6104 5.85915 41.6396C5.6263 41.6549 5.54163 41.5743 5.51481 41.3616C5.34265 40.0301 5.32148 38.636 5.99322 37.4949C6.55771 36.5386 7.05587 35.4669 7.98445 34.7289C8.71123 34.1521 9.36039 34.0839 9.99685 34.7553C11.1766 36.0062 12.18 37.3642 12.3875 39.1377C12.4622 39.8458 12.4693 40.5592 12.4086 41.2685C12.3874 41.559 12.2971 41.6549 11.9852 41.6257C11.5809 41.5961 11.175 41.5928 10.7702 41.616C10.5036 41.6126 10.2464 41.7129 10.0544 41.895C9.86233 42.0771 9.75089 42.3265 9.74423 42.589C9.73012 43.1449 10.1295 43.5619 10.7194 43.6133C11.5077 43.7084 12.3073 43.5832 13.0267 43.252C13.7775 42.8947 14.0964 42.279 14.1769 41.5076C14.3293 40.0787 14.2841 38.6499 13.7662 37.2961C13.5334 36.6831 13.6787 36.0243 13.3682 35.4391C12.7134 34.2049 11.8851 33.1596 10.6643 32.3813C10.1182 32.0324 9.6144 31.507 9.7908 30.6244C9.99402 29.6014 10.1069 28.5715 10.6926 27.6666C11.0284 27.151 11.4363 26.7465 12.1038 26.6937C12.2604 26.6825 12.4114 26.6242 12.5681 26.5992C12.9914 26.5324 13.4318 26.3531 13.8142 26.4407C14.222 26.5352 14.1105 27.0981 14.3109 27.4262C14.9869 28.5381 15.8732 29.4791 16.7989 30.3853C18.5643 32.1158 20.4892 33.6628 22.4438 35.1695C22.6456 35.3238 22.7867 35.3891 23.0266 35.2015C25.4934 33.2875 27.9363 31.3472 30.0164 29.0121C30.6571 28.2949 31.2752 27.5527 31.4996 26.588C31.5476 26.3837 31.6534 26.3934 31.7988 26.4185C32.4056 26.5241 33.0138 26.627 33.6178 26.7423C33.972 26.8104 34.1823 27.0801 34.3954 27.3358C35.2012 28.3171 35.4919 29.4874 35.6556 30.7036C35.6583 30.8436 35.673 30.9831 35.6994 31.1206C35.8264 31.5279 35.6373 31.6766 35.2647 31.8156C34.4948 32.1135 33.8576 32.6713 33.4667 33.3893C33.0758 34.1073 32.9568 34.9388 33.131 35.7352C33.4499 37.3044 34.9415 38.4859 36.5955 38.4789C38.2988 38.4789 39.7086 37.2933 40.0403 35.5962C40.1847 34.8124 40.0451 34.0036 39.6458 33.3109C39.2465 32.6182 38.613 32.0855 37.8557 31.8058C37.462 31.6669 37.3463 31.4806 37.3223 31.0775C37.2608 29.9546 37.0094 28.8497 36.5786 27.8084C38.2362 28.6003 39.7182 29.7076 40.9392 31.0664C43.7532 34.2355 44.9767 37.9174 44.5421 42.1164C44.2387 45.0352 42.4337 46.8908 39.2768 47.5371C37.2094 47.9638 35.1123 47.9902 33.0138 47.9902C25.556 47.9902 18.0977 47.98 10.6389 47.9597C8.76908 47.9597 6.9091 47.8068 5.11121 47.2286C2.63593 46.4335 1.30091 44.7114 0.974923 42.2151C0.226977 36.5372 3.2611 30.7731 8.39511 28.0683C8.47696 28.0377 8.56446 28.0044 8.75074 27.914Z" fill="#2268FF"/>
<path d="M22.7671 2.86701e-05C24.4543 -0.00645001 26.1238 0.338068 27.6664 1.01102C29.2091 1.68398 30.59 2.6702 31.7189 3.90515C32.8478 5.1401 33.6992 6.59594 34.2174 8.17736C34.7355 9.75879 34.9088 11.4302 34.7258 13.0821C34.1966 17.9649 32.1856 22.207 28.6067 25.6693C27.2915 26.9411 25.7405 27.8543 23.8876 28.1712C21.6565 28.5437 19.716 27.8307 17.9605 26.5367C15.3653 24.6172 13.6817 22.0138 12.4059 19.1339C11.523 17.165 10.9674 15.0691 10.7605 12.9264C10.196 6.9497 14.3788 1.39969 20.3483 0.237702C21.1446 0.079864 21.9548 0.000253006 22.7671 2.86701e-05Z" fill="#2268FF"/>
<path d="M38.1999 34.9902C38.2042 35.4107 38.0409 35.8161 37.7451 36.1193C37.4494 36.4226 37.0447 36.5996 36.6179 36.6123C36.1832 36.6164 35.7644 36.4511 35.4528 36.1525C35.1411 35.8539 34.9619 35.4462 34.9541 35.018C34.964 34.5971 35.1373 34.1959 35.4384 33.897C35.7395 33.5981 36.1455 33.4243 36.5728 33.4113C36.9988 33.4158 37.4064 33.5829 37.7098 33.8774C38.0133 34.1718 38.189 34.5708 38.1999 34.9902Z" fill="#2268FF"/>
</g>
<defs>
<clipPath id="clip0_189_9591">
<rect width="43.7647" height="48" fill="white" transform="translate(0.867676)"/>
</clipPath>
</defs>
</svg>
