<svg width="49" height="49" viewBox="0 0 49 49" fill="none" xmlns="http://www.w3.org/2000/svg">
<path fill-rule="evenodd" clip-rule="evenodd" d="M22.2079 44.6301C22.3057 44.73 22.3619 44.8632 22.3619 45.0047V47.7324V47.7303C22.3619 47.8718 22.3057 48.007 22.2059 48.1069C22.106 48.2068 21.9708 48.2629 21.8293 48.2629H12.2011C11.9057 48.2629 11.6685 48.0257 11.6685 47.7303V45.0047C11.6685 44.8632 11.7247 44.73 11.8225 44.6301C11.9223 44.5303 12.0575 44.472 12.2011 44.472H21.8293C21.9728 44.472 22.1081 44.5303 22.2079 44.6301ZM36.311 44.4699L26.6764 44.472C26.5328 44.472 26.3976 44.5303 26.2977 44.6301C26.2 44.73 26.1438 44.8632 26.1438 45.0047V47.7324V47.7303C26.1438 47.8718 26.2 48.007 26.2998 48.1069C26.3997 48.2068 26.5349 48.2629 26.6764 48.2629H36.311C36.4524 48.2629 36.5877 48.2068 36.6875 48.1069C36.7874 48.007 36.8436 47.8718 36.8436 47.7303V45.0047C36.8436 44.8632 36.7874 44.7279 36.6875 44.6281C36.5877 44.5282 36.4524 44.472 36.311 44.472V44.4699ZM47.6866 23.1328C47.1457 22.9351 46.5465 22.9913 46.0514 23.2826C45.3732 23.6945 44.8198 24.2834 44.4536 24.9866L40.817 31.3139C41.1041 31.7467 41.1998 32.2793 41.0792 32.7849C40.9585 33.2905 40.6339 33.7212 40.1825 33.9771L35.4682 36.6986V36.7007C35.3538 36.7797 35.2102 36.8089 35.0729 36.7797C34.9377 36.7485 34.8191 36.6632 34.7484 36.5405C34.6776 36.4198 34.661 36.2741 34.7026 36.141C34.7442 36.0078 34.842 35.8975 34.9689 35.8372L39.7934 33.0408C40.1325 32.7724 40.2262 32.2981 40.0119 31.9214C39.654 31.4117 39.0674 31.1121 38.4453 31.1225C37.6506 31.137 36.8767 31.3742 36.2088 31.8049L31.8358 34.3287C31.7963 34.3537 31.7546 34.3703 31.7089 34.3828C26.9156 35.6728 27.2567 38.9207 27.4481 40.6307C27.4793 40.9449 27.5126 41.2112 27.5126 41.4234V43.4895L35.4744 43.4916V41.4089C35.4744 40.046 35.8634 39.555 36.8912 38.9578L39.8142 37.2683V37.2704C40.688 36.7794 41.4078 36.0595 41.8967 35.1877L48.1339 24.3851C48.2608 24.1625 48.2858 23.8962 48.1984 23.6548C48.1131 23.4156 47.9259 23.2243 47.6866 23.1328ZM26.8239 29.876C25.6797 29.874 24.7539 28.9439 24.7539 27.7996V15.8567C24.7539 15.5799 24.5292 15.3573 24.2525 15.3573C23.9758 15.3573 23.7511 15.5799 23.7511 15.8567V17.259C23.2164 17.3089 22.6922 17.0801 22.3676 16.6515C22.0264 16.2561 21.9016 15.7173 22.0306 15.2138C22.1034 14.9662 21.9786 14.7061 21.7414 14.6083C21.5042 14.5105 21.2317 14.6083 21.111 14.8351C20.8634 15.659 21.0299 16.5537 21.5583 17.2341C22.0867 17.9144 22.9127 18.2952 23.774 18.2598V27.7931C23.7636 28.8563 22.9543 29.7405 21.8975 29.8425C20.8406 29.9445 19.8753 29.2329 19.661 28.1926C19.6111 27.9325 19.3656 27.7577 19.1014 27.7931C17.824 27.9783 16.636 27.0981 16.4384 25.8227C17.1187 25.7374 17.7636 25.469 18.3025 25.0446C18.5188 24.8677 18.55 24.5473 18.3732 24.3309C18.1943 24.1146 17.876 24.0834 17.6596 24.2623C16.5653 25.1258 14.9987 25.0342 14.0105 24.0501C13.48 23.5216 13.1867 22.7975 13.2012 22.0485C13.2158 21.2995 13.5341 20.59 14.0855 20.0802C14.2623 19.8888 14.2623 19.5913 14.0834 19.3999C13.9045 19.2085 13.607 19.1876 13.4031 19.352C13.1368 19.5996 12.9059 19.8847 12.7228 20.1988C11.4641 19.9283 10.5612 18.8214 10.5488 17.5356C10.5425 16.8781 10.7755 16.2394 11.2041 15.74C11.4663 15.9418 11.7471 16.1208 12.0405 16.2726C12.159 16.3392 12.3005 16.3559 12.4295 16.3163C12.5606 16.2789 12.6708 16.1873 12.7332 16.0667C12.7957 15.946 12.8061 15.8045 12.7603 15.6755C12.7166 15.5465 12.623 15.4404 12.4982 15.3821C10.8317 14.5353 9.83935 12.7689 9.9808 10.9046C10.1223 9.04037 11.3726 7.44659 13.1472 6.85983C13.3365 7.39871 13.6465 7.8856 14.0543 8.283C14.2519 8.45154 14.5473 8.43905 14.7325 8.25387C14.9156 8.0687 14.926 7.77325 14.7574 7.57561C14.2498 7.07209 13.9627 6.3917 13.9606 5.67806C13.9565 4.96651 14.2373 4.27988 14.7387 3.77429C15.781 2.71939 17.4828 2.71108 18.5376 3.75557C18.6291 3.86168 18.7602 3.9241 18.8996 3.93034C19.039 3.9345 19.1742 3.88248 19.274 3.78261C19.3718 3.68274 19.4238 3.5475 19.4176 3.4081C19.4114 3.2687 19.3469 3.13762 19.2408 3.04815C18.9703 2.77767 18.6603 2.55296 18.3191 2.38235C18.6416 1.02368 19.9273 0.122767 21.3129 0.280909C22.6985 0.441117 23.7449 1.61044 23.7511 3.00447V14.0462C23.7511 14.3229 23.9758 14.5476 24.2525 14.5476C24.5292 14.5476 24.7539 14.3229 24.7539 14.0462V8.28297C25.145 8.50768 25.5861 8.63668 26.0376 8.66165C27.0424 8.71574 27.9869 8.17894 28.455 7.28636C28.5903 7.04709 28.507 6.74333 28.2678 6.60602C28.0244 6.48742 27.7331 6.56857 27.5875 6.79744C27.3004 7.35714 26.7117 7.69627 26.0855 7.66506C25.7921 7.64842 25.5092 7.56519 25.2533 7.41954C25.0473 7.31343 24.8746 7.15114 24.754 6.9514V3.01069C24.7623 1.61666 25.8108 0.449421 27.1964 0.291279C28.5799 0.135231 29.8635 1.03613 30.186 2.39272C29.8448 2.56333 29.5348 2.78804 29.2643 3.05852C29.1582 3.14799 29.0937 3.27907 29.0875 3.41847C29.0813 3.55787 29.1333 3.69311 29.231 3.79298C29.3309 3.89285 29.4661 3.94695 29.6055 3.94071C29.7449 3.93655 29.876 3.87204 29.9675 3.76594C30.2172 3.51834 30.5126 3.32276 30.8351 3.18546C32.023 2.69859 33.3898 3.11888 34.0972 4.18832C34.8066 5.25984 34.661 6.68093 33.7477 7.586C33.602 7.78574 33.6228 8.06247 33.7997 8.23726C33.9744 8.41204 34.2532 8.43076 34.4509 8.28304C34.8649 7.87524 35.1749 7.37382 35.3579 6.8245C37.1284 7.41126 38.3746 9.00504 38.5181 10.8672C38.6617 12.7293 37.6735 14.4937 36.0112 15.3468C35.7553 15.4716 35.6492 15.7796 35.7761 16.0355C35.901 16.2914 36.2089 16.3975 36.4648 16.2727C36.7602 16.1187 37.041 15.9398 37.3073 15.74C37.9294 16.4787 38.1208 17.4899 37.8087 18.4053C37.4967 19.3208 36.729 20.0054 35.7824 20.2092C35.5993 19.8951 35.3684 19.61 35.1021 19.3624C34.8982 19.1981 34.6007 19.2189 34.4218 19.4103C34.2429 19.6017 34.2429 19.8993 34.4197 20.0927C34.9711 20.6004 35.2893 21.3099 35.3039 22.0589C35.3185 22.8101 35.0252 23.532 34.4947 24.0605C33.5064 25.0447 31.9399 25.1362 30.8456 24.2727C30.6292 24.1312 30.34 24.1791 30.1798 24.3809C30.0175 24.5848 30.0404 24.8782 30.2277 25.055C30.7686 25.4795 31.4115 25.7479 32.0917 25.8332C31.8962 27.1107 30.7082 27.9887 29.4288 27.8035C29.1666 27.7681 28.9211 27.9429 28.8712 28.203C28.6756 29.1788 27.8184 29.8802 26.8239 29.876ZM19.3676 19.3728C19.3614 19.2397 19.3011 19.1149 19.2012 19.0254C19.1013 18.938 18.9682 18.8943 18.835 18.9047C17.6159 18.9734 16.299 19.6766 15.8413 20.7793H15.8434C15.7789 20.9042 15.7705 21.0477 15.8184 21.1809C15.8662 21.312 15.9661 21.416 16.0951 21.4701C16.2241 21.5242 16.3697 21.5221 16.4966 21.4618C16.6235 21.4035 16.7213 21.2953 16.765 21.1622C17.0729 20.4215 18.0653 19.9471 18.8954 19.8992C19.0264 19.893 19.1513 19.8327 19.2407 19.7349C19.3302 19.635 19.3759 19.506 19.3676 19.3728ZM22.5154 24.9656C21.9245 24.976 21.3711 24.6722 21.0611 24.1687C20.7511 23.6631 20.7324 23.0327 21.0091 22.5104C21.0902 22.4064 21.1256 22.2732 21.109 22.1422C21.0923 22.0111 21.0237 21.8925 20.9176 21.8113C20.6929 21.6615 20.3912 21.7011 20.2164 21.9071C19.7088 22.7352 19.6922 23.7734 20.1728 24.616C20.6513 25.4587 21.5521 25.9747 22.5216 25.9622C22.6547 25.9601 22.7817 25.906 22.8732 25.8103C22.9668 25.7167 23.0188 25.5877 23.0167 25.4545C23.0167 25.3234 22.9647 25.1965 22.869 25.1049C22.7754 25.0134 22.6485 24.9635 22.5154 24.9656ZM20.6159 19.2503C20.3725 19.1546 20.0979 19.2607 19.9814 19.4938C19.8649 19.7268 19.9502 20.0119 20.1728 20.145C20.6513 20.3926 21.0424 20.7796 21.2962 21.254C21.3607 21.3684 21.4689 21.4537 21.5958 21.4891C21.7227 21.5245 21.86 21.5058 21.9724 21.4392C22.0889 21.3747 22.1742 21.2686 22.2095 21.1416C22.2449 21.0147 22.2304 20.8774 22.1638 20.763C21.8122 20.1138 21.2733 19.5874 20.6159 19.2503ZM20.6783 12.7835C19.4945 12.3674 18.1818 12.538 17.1416 13.2413C17.0064 13.3349 16.8753 13.4348 16.7546 13.545C16.5612 13.5783 16.3635 13.5554 16.1846 13.4764C15.729 13.2641 15.4856 12.7627 15.5979 12.2717C15.652 12.1531 15.6562 12.0158 15.6083 11.893C15.5625 11.7703 15.4668 11.6704 15.3482 11.6184C15.0965 11.5039 14.8011 11.6163 14.6867 11.868C14.514 12.382 14.5514 12.9437 14.7907 13.4306C15.032 13.9175 15.4564 14.2878 15.9703 14.4626C15.6977 14.8891 15.498 15.3614 15.3856 15.8566C15.3503 16.1146 15.5209 16.356 15.7747 16.4122C16.0285 16.4663 16.2823 16.3186 16.3593 16.071C16.5465 15.2575 17.0292 14.5417 17.7116 14.0632C18.496 13.5347 19.4862 13.4119 20.3746 13.7323C20.6367 13.8114 20.9134 13.6678 20.9987 13.4078C21.0403 13.2829 21.0299 13.1456 20.9696 13.0291C20.9093 12.9105 20.8052 12.823 20.6783 12.7835ZM23.1499 10.7861C23.1499 10.6529 23.0979 10.526 23.0042 10.4324C22.9085 10.3388 22.7816 10.2867 22.6485 10.2867C21.7081 10.2867 20.876 9.67922 20.5909 8.78246C20.3059 7.8857 20.6346 6.90782 21.4023 6.36474C21.5125 6.29192 21.5874 6.1754 21.6103 6.04432C21.6332 5.91532 21.6041 5.78008 21.525 5.67397C21.4501 5.5637 21.3357 5.49087 21.2046 5.46799C21.0756 5.4451 20.9404 5.47423 20.8322 5.55121C20.2767 5.94237 19.8628 6.50209 19.6505 7.14914C19.0284 6.72053 18.2545 6.57697 17.5201 6.75382C17.3808 6.77462 17.258 6.85369 17.179 6.9702C17.0999 7.08672 17.0749 7.23028 17.1082 7.3676C17.1394 7.50492 17.2289 7.62144 17.3516 7.68802C17.4765 7.75668 17.6221 7.76916 17.7552 7.72339C18.4127 7.56943 19.0992 7.82535 19.4965 8.37465C19.5569 9.12787 19.8814 9.83527 20.412 10.3721C21.007 10.963 21.8142 11.2938 22.6547 11.2876C22.9293 11.2834 23.1499 11.0608 23.1499 10.7861ZM29.9133 15.4259C29.9673 15.5466 30.0672 15.6423 30.192 15.6901C30.3148 15.738 30.4521 15.7359 30.5748 15.6818C31.2281 15.3885 31.7815 14.912 32.1726 14.3128C32.5221 13.7843 32.7281 13.1747 32.7739 12.5442C33.0734 12.1156 33.5186 11.8139 34.0263 11.6912C34.5506 11.5684 35.1019 11.6475 35.57 11.9159C35.6823 11.9824 35.8196 12.0012 35.9465 11.9679C36.0734 11.9325 36.1816 11.8493 36.2461 11.7348C36.3127 11.6204 36.3314 11.4831 36.2981 11.3562C36.2648 11.2272 36.1795 11.119 36.0651 11.0524C34.9854 10.4282 33.6372 10.5094 32.6407 11.2605C32.4035 10.4532 31.9001 9.74785 31.2135 9.26304C31.1053 9.18606 30.9722 9.15485 30.8432 9.17773C30.7121 9.20062 30.5977 9.27345 30.5207 9.37956C30.4438 9.48983 30.4125 9.62508 30.4354 9.75824C30.4583 9.88931 30.5332 10.0079 30.6435 10.0828C31.4382 10.6467 31.8709 11.5913 31.7752 12.5608C31.6816 13.5283 31.0741 14.373 30.1858 14.7705C30.0609 14.8204 29.9632 14.9182 29.9111 15.0409C29.8612 15.1637 29.8612 15.3031 29.9133 15.4259ZM26.8363 15.2449C27.3564 15.6444 27.9743 15.8962 28.6255 15.9752C28.9001 16.0064 29.1498 15.8108 29.181 15.5341C29.2143 15.2595 29.0166 15.0098 28.742 14.9786C28.2677 14.9203 27.8162 14.7372 27.4376 14.4459C27.2171 14.3128 26.9341 14.3669 26.7781 14.5708C26.6241 14.7747 26.6491 15.0639 26.8363 15.2386L26.8363 15.2449ZM26.7032 24.7952C26.9715 24.7702 27.1713 24.533 27.1505 24.2625C27.0069 22.6646 29.3765 20.2261 31.9438 21.8553C32.1747 22.003 32.4805 21.9343 32.6283 21.7034C32.7739 21.4724 32.7073 21.1666 32.4764 21.0188C31.2989 20.199 29.7656 20.0929 28.4861 20.7421C28.2926 20.7234 28.1075 20.6485 27.9535 20.5278C27.5686 20.2053 27.4625 19.656 27.6976 19.2128C27.7829 19.1129 27.8245 18.9819 27.81 18.8487C27.7975 18.7176 27.733 18.5969 27.629 18.5158C27.4147 18.341 27.1005 18.3722 26.9258 18.5845C26.5326 19.1442 26.4598 19.8703 26.7344 20.4965C26.8904 20.8752 27.1546 21.1977 27.4958 21.4245C26.6387 22.1507 26.154 23.2284 26.181 24.354C26.2247 24.6079 26.4452 24.7931 26.7032 24.7952ZM13.0305 41.4089V43.4749H21.0193V41.4089C21.0193 41.1966 21.0506 40.9303 21.0838 40.6161C21.2711 38.9059 21.6164 35.658 16.8231 34.3682V34.3661C16.7794 34.3557 16.7378 34.3412 16.7004 34.3183L12.3273 31.7945C11.6595 31.3617 10.8856 31.1266 10.0908 31.112C9.46877 31.1037 8.88212 31.4033 8.52427 31.911C8.30999 32.2876 8.4036 32.762 8.74272 33.0304L13.5673 35.8268H13.5693C13.7815 35.9766 13.844 36.2616 13.7129 36.4864C13.5839 36.7111 13.303 36.8005 13.068 36.6882L8.35368 33.9667C7.9043 33.7108 7.57977 33.278 7.46116 32.7724C7.3405 32.2689 7.43411 31.7363 7.72121 31.3035L4.0409 24.9869C3.67474 24.2836 3.12132 23.6948 2.44312 23.2828C1.90845 22.9645 1.2531 22.9312 0.691373 23.1975C0.487491 23.312 0.339777 23.5013 0.279445 23.726C0.219113 23.9507 0.252399 24.19 0.370987 24.3897L6.60817 35.188C7.09708 36.0598 7.81689 36.7797 8.69071 37.2708L11.6137 38.9602C12.6415 39.5553 13.0305 40.044 13.0305 41.4089Z" fill="#2268FF"/>
</svg>
