<svg width="54" height="49" viewBox="0 0 54 49" fill="none" xmlns="http://www.w3.org/2000/svg">
<path d="M35.4684 31.7507L32.8014 36.2513C32.2458 37.1958 31.3013 37.7514 30.19 37.7514C29.6344 37.7514 29.1343 37.5848 28.6343 37.3069C27.9675 36.8625 27.4675 36.2513 27.2452 35.4734C27.023 34.6955 27.1341 33.9177 27.5786 33.1954L27.7453 32.862C26.6896 32.3619 25.0227 31.8619 22.4113 31.9174C17.1885 32.0285 12.4657 35.5845 12.9102 33.8621C13.2991 32.3619 14.077 29.6394 14.9104 27.1391C16.1328 23.4164 18.1886 18.138 20.2444 17.9713C22.9114 17.7491 24.0782 17.1379 25.8562 17.1379C28.0786 17.1379 29.2455 16.36 29.2455 15.3599C29.2455 14.3598 28.3009 14.5265 27.7453 14.1931C27.4119 13.9709 29.0788 12.6374 29.6344 11.4706C30.19 10.2482 26.1895 8.91471 23.8004 8.52577C21.4112 8.1924 20.4111 9.3592 19.6888 10.4149C18.9665 11.4706 15.6883 15.6933 10.1876 21.0828C6.18717 25.1388 2.74232 32.5286 1.24214 36.029C0.630958 37.5292 0.742083 39.2516 1.68664 40.6407C6.13161 47.2526 21.2445 48.1971 26.3007 47.1414C30.4123 49.4751 46.1363 50.6419 46.1363 40.9185C46.1919 33.2509 40.9135 31.4174 35.4684 31.7507Z" fill="#2268FF"/>
<path d="M33.3015 26.9168L33.6349 27.139L29.4122 34.3065C29.1344 34.751 29.3011 35.3067 29.7456 35.5845C30.1901 35.8623 30.7457 35.6956 31.0235 35.2511L35.2462 28.0836L35.5796 28.3058C36.0796 28.5836 36.6908 28.417 36.9686 27.9725L37.6354 26.8612L33.6349 24.472L32.9682 25.5833C32.6348 26.0278 32.8015 26.639 33.3015 26.9168Z" fill="#2268FF"/>
<path d="M51.1927 10.7482L41.0804 4.74751C40.6359 4.4697 40.0803 4.63639 39.8024 5.08089C39.5246 5.52538 39.6913 6.081 40.1358 6.35881L41.2471 7.02556L40.0803 9.0258L42.9695 10.7482C43.414 11.026 43.5251 11.5817 43.3029 12.0262C43.025 12.4706 42.4694 12.5818 42.0249 12.3595L39.1357 10.6371L37.6911 13.1374L40.5803 14.8598C41.0248 15.1376 41.1359 15.6933 40.9137 16.1377C40.6359 16.5822 40.0803 16.6934 39.6358 16.4711L36.7465 14.7487L35.3019 17.249L38.1911 18.9714C38.6356 19.2492 38.7468 19.8048 38.5245 20.2493C38.2467 20.6938 37.6911 20.805 37.2466 20.5827L34.3574 18.8603L33.2461 20.7494C32.7461 21.5828 33.0239 22.6385 33.8573 23.083L38.8023 26.0278C39.6358 26.5279 40.6914 26.2501 41.1359 25.4166L49.1369 11.8595L50.2481 12.5262C50.6926 12.804 51.2482 12.6373 51.526 12.1928C51.8039 11.5817 51.6372 11.026 51.1927 10.7482Z" fill="#2268FF"/>
<path d="M53.1928 4.74747L45.3586 0.135819C44.9141 -0.141992 44.3585 0.0246942 44.0806 0.469191C43.8028 0.913688 43.9695 1.46931 44.414 1.74712L46.192 2.8028L44.7474 5.24753L49.0257 7.74783L50.4703 5.3031L52.2483 6.35878C52.6928 6.63659 53.2484 6.4699 53.5262 6.0254C53.7485 5.58091 53.6373 5.02529 53.1928 4.74747Z" fill="#2268FF"/>
</svg>
