<svg width="49" height="49" viewBox="0 0 49 49" fill="none" xmlns="http://www.w3.org/2000/svg">
<g clip-path="url(#clip0_189_9628)">
<path d="M48.7502 13.2317C48.5602 13.4892 48.4114 13.7992 48.1714 13.9954C47.6089 14.4554 46.8377 14.3567 46.2689 13.7904C44.9723 12.5021 43.6806 11.2104 42.3939 9.91541C42.2853 9.79585 42.1831 9.67068 42.0877 9.54041L38.0239 13.6517L39.5414 15.1604C40.0602 15.6792 40.5877 16.1917 41.0964 16.7204C41.7214 17.3667 41.7127 18.1629 41.0877 18.8067C40.4627 19.4504 39.8089 20.0904 39.1677 20.7304C37.4002 22.4979 35.6339 24.2663 33.8689 26.0354C33.7687 26.1521 33.6791 26.2776 33.6014 26.4104L23.1802 15.9842C23.2189 15.9417 23.3177 15.8254 23.4302 15.7179C25.8152 13.3312 28.201 10.945 30.5877 8.55916C31.3902 7.75666 32.1339 7.75666 32.9402 8.55916C33.9402 9.55166 34.9264 10.5479 35.8889 11.5117L39.9314 7.47041C39.8664 7.40166 39.7539 7.27792 39.6364 7.15917L35.9189 3.43791C34.8714 2.39041 34.9977 1.45916 36.2814 0.759155H36.9377C37.2739 1.00166 37.6502 1.20541 37.9377 1.49541C41.3043 4.84291 44.6614 8.2 48.0089 11.5667C48.2989 11.8579 48.5027 12.2342 48.7464 12.5667L48.7502 13.2317Z" fill="#2268FF"/>
<path d="M20.1564 0.762939C20.2527 0.806689 20.3464 0.856689 20.4464 0.887939C21.1102 1.13794 21.3989 1.51295 21.4027 2.22295C21.4127 4.20545 21.4127 6.18836 21.4027 8.17169C21.4027 9.02169 20.8039 9.63295 20.0277 9.6442C19.2514 9.65545 18.6339 9.04044 18.6089 8.20044C18.5839 7.36044 18.6089 6.5492 18.6089 5.72295L18.4452 5.59795L13.3102 11.0217C13.5714 11.9279 13.9427 12.8617 14.1002 13.8292C14.6652 17.3067 12.2714 20.6242 8.79644 21.2779C5.17894 21.9579 1.69894 19.7054 0.953941 16.2017C0.883941 15.8692 0.828945 15.5342 0.762695 15.2017V14.1704C0.838945 13.7954 0.900193 13.4054 0.995193 13.0304C2.07269 8.78044 6.78645 6.74419 10.7564 8.82544C11.0739 8.99169 11.2477 8.97419 11.5064 8.71544C13.0827 7.11169 14.6802 5.52794 16.2689 3.93794C16.3627 3.84419 16.4464 3.74169 16.5977 3.57544C15.6527 3.57544 14.7989 3.59294 13.9464 3.57544C12.9014 3.54794 12.2139 2.47794 12.7077 1.58794C12.8952 1.25169 13.3039 1.03795 13.6114 0.769196L20.1564 0.762939ZM7.46394 18.5929C8.23503 18.5941 8.98921 18.3671 9.63148 17.9404C10.2738 17.5137 10.7754 16.9065 11.0732 16.1953C11.371 15.484 11.4516 14.7005 11.3049 13.9435C11.1582 13.1865 10.7907 12.4899 10.2488 11.9413C9.70685 11.3928 9.0147 11.0169 8.25954 10.8611C7.50437 10.7052 6.71996 10.7764 6.00515 11.0655C5.29034 11.3547 4.67709 11.8489 4.24267 12.486C3.80825 13.123 3.57209 13.8744 3.56394 14.6454C3.55698 15.1618 3.65276 15.6743 3.8457 16.1533C4.03863 16.6323 4.32488 17.0681 4.68779 17.4354C5.0507 17.8027 5.48303 18.0942 5.95963 18.293C6.43622 18.4917 6.94758 18.5937 7.46394 18.5929Z" fill="#2268FF"/>
<path d="M29.1565 48.763C28.8477 48.4955 28.459 48.278 28.2477 47.9492C27.9227 47.4417 28.0827 46.7905 28.5427 46.3242C29.3202 45.5367 30.1077 44.758 30.9415 43.9255C30.3652 43.3605 29.8077 42.8205 29.2602 42.273C29.0718 42.0935 28.9391 41.8635 28.8782 41.6105C28.8172 41.3575 28.8305 41.0923 28.9165 40.8467C28.9869 40.5958 29.13 40.3713 29.3277 40.2016C29.5255 40.0319 29.769 39.9245 30.0277 39.893C30.5277 39.8067 30.949 39.9855 31.2965 40.3442C31.8152 40.8792 32.3302 41.4192 32.8202 41.9305L36.3115 38.4392C35.7599 37.5212 35.4184 36.4924 35.3115 35.4267C34.9815 32.0517 37.3952 28.833 40.729 28.2292C44.5452 27.5367 48.014 29.9792 48.6702 33.8317C48.6901 33.905 48.7168 33.9761 48.7502 34.0442V35.5442C48.7165 35.6792 48.6752 35.8117 48.6515 35.9492C48.0365 39.603 44.5827 42.103 40.9502 41.4492C40.0477 41.288 39.1852 40.9055 38.3377 40.6355L34.9277 44.033C35.4602 44.5467 36.0452 45.0642 36.5765 45.6317C36.7525 45.8111 36.8766 46.0348 36.9357 46.2791C36.9947 46.5234 36.9865 46.7791 36.9119 47.0191C36.8373 47.2591 36.6991 47.4744 36.5119 47.6421C36.3248 47.8098 36.0957 47.9238 35.849 47.9717C35.3352 48.0792 34.8952 47.9105 34.5302 47.543C33.9952 47.0055 33.4627 46.4667 32.9052 45.9005C32.2515 46.5642 31.6665 47.193 31.0427 47.7755C30.6677 48.133 30.2277 48.4292 29.8165 48.753L29.1565 48.763ZM42.0315 30.9305C41.2605 30.9288 40.5062 31.1553 39.8636 31.5815C39.2211 32.0078 38.7191 32.6146 38.4209 33.3256C38.1226 34.0366 38.0414 34.82 38.1875 35.577C38.3337 36.3341 38.7005 37.031 39.242 37.5799C39.7835 38.1288 40.4752 38.5052 41.2302 38.6617C41.9852 38.8182 42.7696 38.7477 43.4846 38.4592C44.1996 38.1707 44.8133 37.677 45.2483 37.0404C45.6832 36.4038 45.9201 35.6527 45.929 34.8817C45.9361 34.3656 45.8406 33.8532 45.6481 33.3743C45.4556 32.8954 45.1698 32.4595 44.8075 32.0919C44.4451 31.7243 44.0133 31.4323 43.5372 31.2329C43.0611 31.0336 42.5501 30.9308 42.034 30.9305H42.0315Z" fill="#2268FF"/>
<path d="M0.75 46.9817C1.03279 46.5979 1.33485 46.2287 1.65501 45.8754C3.85501 43.6579 6.06334 41.4496 8.28001 39.2504C8.4371 39.1255 8.60435 39.0138 8.78001 38.9167C8.33501 38.5029 7.98876 38.2092 7.67751 37.8829C7.14001 37.3217 7.085 36.5154 7.60375 35.9767C8.63125 34.9104 9.7 33.8829 10.7225 32.8679L16.6562 38.7904C15.6375 39.8192 14.6138 40.8904 13.545 41.9154C12.995 42.4442 12.2175 42.3854 11.64 41.8479C11.31 41.5404 11.0038 41.2054 10.6688 40.8654C10.52 41.0067 10.3963 41.1154 10.2775 41.2404C8.0675 43.4488 5.85667 45.6571 3.645 47.8654C3.30875 48.2004 2.90751 48.4704 2.53751 48.7717H1.78751C1.33318 48.5599 0.968037 48.1948 0.756256 47.7404L0.75 46.9817Z" fill="#2268FF"/>
<path d="M0.75 47.7317C0.961781 48.186 1.32692 48.5512 1.78125 48.7629H0.75V47.7317Z" fill="white"/>
<path d="M21.049 18.1029L31.409 28.4567C31.3302 28.5442 31.2327 28.6604 31.1265 28.7679L22.1165 37.7779C21.284 38.6104 20.5577 38.6129 19.7302 37.7867L11.714 29.7704C10.9052 28.9617 10.904 28.2304 11.714 27.4192C14.7273 24.4042 17.7419 21.39 20.7577 18.3767C20.8552 18.2779 20.964 18.1879 21.049 18.1029Z" fill="#2268FF"/>
</g>
<defs>
<clipPath id="clip0_189_9628">
<rect width="48" height="48" fill="white" transform="translate(0.75 0.762939)"/>
</clipPath>
</defs>
</svg>
