<svg width="43" height="48" viewBox="0 0 43 48" fill="none" xmlns="http://www.w3.org/2000/svg">
<g clip-path="url(#clip0_189_9597)">
<path d="M0.274902 41.7701V18.6016H26.6627V34.1839C22.8242 35.2636 20.7472 37.7798 20.424 41.7766L0.274902 41.7701ZM6.47463 30.1871C6.47463 32.687 6.47463 35.1869 6.47463 37.6867C6.47463 39.303 7.41964 40.2508 9.02928 40.2521C11.9716 40.2521 14.9188 40.2521 17.8706 40.2521C19.5231 40.2521 20.4668 39.3186 20.4668 37.6816C20.4668 32.6818 20.4668 27.6821 20.4668 22.6824C20.4668 21.0648 19.5231 20.1183 17.9122 20.1183C14.9499 20.1183 11.9868 20.1183 9.0228 20.1183C7.43652 20.1183 6.47592 21.0674 6.47463 22.6397C6.4729 25.1551 6.4729 27.6709 6.47463 30.1871Z" fill="#2268FF"/>
<path d="M19.6916 7.74913C19.6916 8.24307 19.7111 8.70856 19.6839 9.17147C19.667 9.46499 19.7851 9.59301 20.0421 9.70292C21.1845 10.1943 22.3255 10.6921 23.4548 11.2119C24.5449 11.6991 25.4458 12.5271 26.0207 13.5705C26.5956 14.6138 26.8131 15.8154 26.6404 16.993H0.288962C0.116314 15.1647 0.578431 13.5458 1.94533 12.2683C2.41089 11.8462 2.93563 11.4938 3.50305 11.2222C4.61941 10.6753 5.76953 10.1878 6.91316 9.70549C7.17278 9.59171 7.27533 9.44689 7.26105 9.16501C7.23768 8.70211 7.25456 8.23791 7.25456 7.74268L19.6916 7.74913Z" fill="#2268FF"/>
<path d="M0.252441 43.3761H20.6326C21.0163 45.2043 22.0492 46.8332 23.5416 47.9638C23.3184 47.9793 23.1847 47.9987 23.051 47.9987C16.5406 47.9987 10.031 47.9987 3.52235 47.9987C1.5817 47.9987 0.269318 46.6785 0.261529 44.7403C0.252442 44.2929 0.252441 43.8455 0.252441 43.3761Z" fill="#2268FF"/>
<path d="M31.9781 46.7186C29.7116 48.6141 26.0185 48.3749 23.8286 46.1652C21.6387 43.9554 21.4154 40.309 23.3094 38.0824L31.9781 46.7186Z" fill="#2268FF"/>
<path d="M24.5532 36.8463C26.9106 34.9934 30.4453 35.2352 32.6534 37.4424C34.8329 39.6224 35.0626 43.1317 33.2219 45.4773C30.3375 42.6068 27.448 39.7298 24.5532 36.8463Z" fill="#2268FF"/>
<path d="M39.7823 38.0592C40.508 39.3328 41.2634 40.516 41.8813 41.7741C42.7277 43.4874 42.0605 45.5821 40.4418 46.6087C39.654 47.1024 38.7153 47.2996 37.7945 47.165C36.8737 47.0303 36.0315 46.5726 35.4194 45.8743C35.187 45.6054 35.1144 45.3855 35.2896 45.0235C35.9246 43.7249 36.1509 42.2655 35.9386 40.8366C35.8789 40.4487 35.9711 40.2354 36.3281 40.0401C37.4678 39.4195 38.5907 38.7458 39.7823 38.0592Z" fill="#2268FF"/>
<path d="M35.4049 38.7832C34.2899 36.3691 32.479 34.8873 29.9893 34.246C30.5721 31.5849 34.0718 30.5363 36.1929 32.3504C36.3987 32.5078 36.5791 32.6958 36.7277 32.9077C37.4923 34.1555 38.2361 35.4162 39.0097 36.7105L35.4049 38.7832Z" fill="#2268FF"/>
<path d="M10.0078 0H12.6676V6.13544H10.0078V0Z" fill="#2268FF"/>
<path d="M14.2578 6.14447V0.0167847H16.9358V6.14447H14.2578Z" fill="#2268FF"/>
<path d="M8.39949 0.0581665V6.16388C7.7102 6.16388 7.03519 6.19749 6.36537 6.15094C5.94608 6.12249 5.70723 5.81476 5.70203 5.38806C5.69295 4.53466 5.66439 3.67996 5.71372 2.82914C5.7627 2.12638 6.05882 1.46329 6.55004 0.956487C7.04126 0.449685 7.69612 0.131606 8.39949 0.0581665Z" fill="#2268FF"/>
<path d="M18.5557 0.0594482C19.9836 0.188752 21.1622 1.42231 21.231 2.88086C21.2687 3.70064 21.2505 4.52301 21.2388 5.33762C21.231 5.85483 20.9364 6.14965 20.4262 6.16258C19.8135 6.17939 19.2021 6.16258 18.5557 6.16258V0.0594482Z" fill="#2268FF"/>
<path d="M18.8792 35.5856H8.05566V24.8082H18.8792V35.5856Z" fill="#2268FF"/>
<path d="M18.9142 23.1983H8.04137C8.04137 22.9203 8.0219 22.6514 8.04137 22.3863C8.08421 21.9143 8.40094 21.6687 8.95913 21.6674C10.7544 21.6674 12.5497 21.6674 14.3449 21.6674H17.7421C18.7169 21.6674 18.9272 21.8833 18.9104 22.8673C18.9129 22.9591 18.9142 23.0548 18.9142 23.1983Z" fill="#2268FF"/>
<path d="M8.03073 37.1799H18.9114C18.9114 37.4385 18.9231 37.679 18.9114 37.9157C18.8828 38.3967 18.5947 38.698 18.1053 38.6992C15.0158 38.7079 11.9268 38.7079 8.83815 38.6992C8.34877 38.6992 8.05929 38.3954 8.03593 37.9118C8.02035 37.6752 8.03073 37.4385 8.03073 37.1799Z" fill="#2268FF"/>
</g>
<defs>
<clipPath id="clip0_189_9597">
<rect width="42" height="48" fill="white" transform="translate(0.25)"/>
</clipPath>
</defs>
</svg>
