<svg width="56" height="48" viewBox="0 0 56 48" fill="none" xmlns="http://www.w3.org/2000/svg">
<path fill-rule="evenodd" clip-rule="evenodd" d="M32.4503 26.8938C32.311 26.2387 32.2439 25.5783 32.2439 24.8685V18.1323C32.2439 17.0727 32.5355 16.1592 33.1368 15.2797L42.1815 2.05244C42.8731 1.0398 41.8305 -0.244301 40.4757 0.040194C40.0809 0.123712 39.7222 0.337724 39.4977 0.666577L32.5122 10.8818C32.2438 11.2733 32.058 11.469 31.738 11.7927C29.5342 14.0215 25.9575 14.0215 23.7536 11.7927C23.4336 11.4691 23.2478 11.2759 22.9794 10.8818L15.9939 0.666577C15.2713 -0.390424 13.4211 -0.129447 13.1269 1.08155C13.0495 1.40519 13.114 1.76533 13.3102 2.05243L22.3601 15.285C22.9614 16.1645 23.253 17.0754 23.253 18.1376V24.8712C23.253 26.2988 22.9846 27.5307 22.4014 28.8357L19.2918 35.8017C19.2738 35.8382 19.2789 35.88 19.2996 35.9139C19.3228 35.9479 19.3563 35.9687 19.3976 35.9687H23.2737C23.3201 35.9687 23.3588 35.9426 23.3795 35.9009L25.8543 30.6236C26.5897 29.0576 28.9045 29.0576 29.6374 30.6236L32.1122 35.9009C32.1329 35.9426 32.1716 35.9687 32.218 35.9687H36.0941C36.1353 35.9687 36.1715 35.9505 36.1921 35.9139C36.2153 35.88 36.2179 35.8382 36.1999 35.8017L33.0903 28.8357C32.8013 28.1779 32.5871 27.5436 32.4503 26.8938ZM34.2516 40.447C34.231 40.4053 34.1923 40.3792 34.1458 40.3792H21.4056C21.3591 40.3792 21.3204 40.4053 21.2998 40.447L18.1902 46.9745C17.9966 47.3868 17.6354 47.6974 17.2044 47.8618C15.6999 48.4412 14.2419 47.0893 14.8148 45.8339L17.2741 40.5487C17.2922 40.5122 17.2896 40.4704 17.2664 40.4339C17.2431 40.3974 17.2096 40.3791 17.1683 40.3791H10.7917C10.7272 40.3791 10.673 40.4339 10.673 40.4991V47.7418C10.673 47.9115 10.4098 47.995 10.2317 47.995H5.40858C5.23311 47.995 4.9673 47.9115 4.9673 47.7418V30.3855C4.9673 30.2158 5.23052 30.1323 5.40858 30.1323H10.2317C10.4072 30.1323 10.673 30.2158 10.673 30.3855V37.6281C10.673 37.6934 10.7272 37.7482 10.7917 37.7482H44.7058C44.7703 37.7482 44.8245 37.6934 44.8245 37.6281L44.8219 30.3855C44.8219 30.2158 45.0851 30.1323 45.2632 30.1323H50.0863C50.2618 30.1323 50.5276 30.2158 50.5276 30.3855V47.7418C50.5276 47.9115 50.2643 47.995 50.0863 47.995H45.2632C45.0877 47.995 44.8219 47.9115 44.8219 47.7418V40.4991C44.8219 40.4339 44.7677 40.3791 44.7032 40.3791H38.3756C38.3343 40.3791 38.2982 40.3974 38.2775 40.4339C38.2543 40.4678 38.2517 40.5096 38.2698 40.5461L40.7162 45.9148C40.7188 45.9174 40.7188 45.92 40.7188 45.9226C40.8478 46.2776 40.8246 46.6534 40.6749 46.9848C40.0736 48.3263 37.9395 48.3237 37.3046 46.9692L34.2516 40.447ZM3.20733 43.6677V34.4627C3.20733 34.3974 3.15313 34.3426 3.08862 34.3426H0.763533C0.567406 34.3426 0.25 34.4288 0.25 34.6167V43.509C0.25 43.6969 0.567412 43.783 0.763533 43.783H3.09119C3.15571 43.7856 3.20733 43.7329 3.20733 43.6677ZM52.2901 43.6677V34.4627C52.2901 34.3974 52.3443 34.3426 52.4088 34.3426H54.7365C54.9326 34.3426 55.25 34.4288 55.25 34.6167V43.509C55.25 43.6969 54.9326 43.783 54.7365 43.783H52.4088C52.3417 43.7856 52.2901 43.7329 52.2901 43.6677ZM27.749 11.5421C26.771 11.5421 25.6665 11.2028 25.0033 10.532C23.4859 8.99738 23.4859 6.51015 25.0033 4.97549C26.5207 3.44084 28.98 3.44084 30.4974 4.97549C32.0148 6.51015 32.0148 8.99738 30.4974 10.532C29.8316 11.2054 28.7271 11.5421 27.749 11.5421Z" fill="#2268FF"/>
</svg>
