<svg width="22" height="23" viewBox="0 0 22 23" fill="none" xmlns="http://www.w3.org/2000/svg">
<path fill-rule="evenodd" clip-rule="evenodd" d="M11 0.75C11.4142 0.75 11.75 1.08579 11.75 1.5V1.75143C11.8612 1.75311 11.9561 1.75675 12.0446 1.76458C13.8548 1.92465 15.2896 3.35953 15.4497 5.16968C15.4643 5.33512 15.4643 5.52256 15.4643 5.79785L15.4643 7.021C15.4643 10.8903 12.5202 14.0719 8.75001 14.4481V16.5001C8.75001 18.8473 10.6528 20.7501 13 20.7501H13.8824C15.1325 20.7501 16.2247 20.0684 16.8057 19.0558C15.3202 18.5571 14.25 17.1535 14.25 15.5C14.25 13.4289 15.9289 11.75 18 11.75C20.0711 11.75 21.75 13.4289 21.75 15.5C21.75 17.4405 20.2761 19.0367 18.3868 19.2303C17.6592 21.0018 15.9174 22.2501 13.8824 22.2501H13C9.82437 22.2501 7.25001 19.6757 7.25001 16.5001V14.4495C3.3217 14.0722 0.250006 10.7625 0.250006 6.73529L0.250003 5.79791C0.249972 5.52259 0.249951 5.33514 0.264582 5.16968C0.424652 3.35953 1.85954 1.92465 3.66969 1.76458C3.82536 1.75081 4.00051 1.75002 4.25001 1.74999V1.5C4.25001 1.08579 4.58579 0.75 5.00001 0.75C5.41422 0.75 5.75001 1.08579 5.75001 1.5V3.5C5.75001 3.91421 5.41422 4.25 5.00001 4.25C4.58579 4.25 4.25001 3.91421 4.25001 3.5V3.25002C3.9866 3.2502 3.88393 3.25148 3.80181 3.25875C2.71573 3.35479 1.85479 4.21572 1.75875 5.30181C1.75074 5.3924 1.75001 5.50802 1.75001 5.8369V6.73529C1.75001 10.1871 4.54823 12.9853 8.00001 12.9853C11.294 12.9853 13.9643 10.315 13.9643 7.021V5.8369C13.9643 5.50802 13.9636 5.3924 13.9555 5.30181C13.8595 4.21572 12.9986 3.35479 11.9125 3.25875C11.8702 3.255 11.8224 3.25285 11.75 3.25162V3.5C11.75 3.91421 11.4142 4.25 11 4.25C10.5858 4.25 10.25 3.91421 10.25 3.5V1.5C10.25 1.08579 10.5858 0.75 11 0.75ZM15.75 15.5C15.75 14.2574 16.7574 13.25 18 13.25C19.2426 13.25 20.25 14.2574 20.25 15.5C20.25 16.7426 19.2426 17.75 18 17.75C16.7574 17.75 15.75 16.7426 15.75 15.5Z" fill="#363636"/>
</svg>
