<svg width="17" height="22" viewBox="0 0 17 22" fill="none" xmlns="http://www.w3.org/2000/svg">
<path fill-rule="evenodd" clip-rule="evenodd" d="M3.99984 5C3.99984 2.51472 6.01456 0.5 8.49984 0.5C10.9851 0.5 12.9998 2.51472 12.9998 5C12.9998 7.48528 10.9851 9.5 8.49984 9.5C6.01456 9.5 3.99984 7.48528 3.99984 5Z" fill="#2B6EFE"/>
<path fill-rule="evenodd" clip-rule="evenodd" d="M0.251088 19.1053C0.328429 14.6156 3.99183 11 8.49984 11C13.008 11 16.6714 14.6157 16.7486 19.1056C16.7537 19.4034 16.5822 19.676 16.3115 19.8002C13.9326 20.8918 11.2864 21.5 8.50016 21.5C5.7137 21.5 3.06728 20.8917 0.688164 19.7999C0.417494 19.6757 0.245959 19.4031 0.251088 19.1053Z" fill="#2B6EFE"/>
</svg>
